<svg width="11366" height="6276" viewBox="0 0 11366 6276" fill="none" xmlns="http://www.w3.org/2000/svg">
<rect width="11366" height="6276" fill="white"/>
<path d="M3410.95 2737.64C3377.72 2773.41 3361.13 2815.77 3361.13 2864.63C3361.13 2919.79 3382.68 2966.87 3425.93 3006.23C3469.11 3045.27 3521.02 3064.83 3581.61 3064.83C3642.16 3064.83 3694.07 3045.27 3737.32 3006.23C3780.51 2966.87 3802.08 2919.79 3802.08 2864.63C3802.08 2815.77 3785.64 2773.41 3752.78 2737.64C3719.85 2701.77 3678.92 2678.46 3629.92 2668.33H3823.39V2581.18H3635.87V2521.34H3527.48V2581.18H3337.92V2668.33H3535.21C3485.63 2678.46 3444.26 2701.77 3410.95 2737.64ZM3502.28 2786.16C3524.2 2764.38 3550.7 2753.41 3581.61 2753.41C3612.55 2753.41 3638.98 2764.38 3660.87 2786.16C3682.82 2808.18 3693.79 2834.58 3693.79 2865.63C3693.79 2896.47 3682.82 2922.97 3660.87 2944.82C3638.98 2966.8 3612.55 2977.74 3581.61 2977.74C3550.7 2977.74 3524.2 2966.8 3502.28 2944.82C3480.33 2922.97 3469.39 2896.47 3469.39 2865.63C3469.39 2834.58 3480.33 2808.18 3502.28 2786.16Z" fill="#231916"/>
<path d="M3880.85 2538.52V3323.96H3509.34V3101.54H3400.99V3411.02H3989.07V3335.83V2625.68H4076.16V2538.52H3989.07H3880.85Z" fill="#231916"/>
<path d="M4727.09 2538.52H4139.04V2625.68H4618.7V2848.24H4096.54V2935.09H4390.49V3086.05H4137.16V3173.07H4618.7V3411.02H4727.09V3086.05H4498.85V2935.09H4792.84V2848.24H4727.09V2538.52Z" fill="#231916"/>
<path d="M5592.87 2538.52H5505.92H5397.5V3411.02H5505.92V2625.68H5592.87V2538.52Z" fill="#231916"/>
<path d="M5167.4 2521.35H5059.11V2600.57H4869.52V2687.66H5357V2600.57H5167.4V2521.35Z" fill="#231916"/>
<path d="M5268.48 2763.85C5226.32 2726 5175.27 2706.92 5115.12 2706.92C5055.08 2706.92 5004 2726 4961.87 2763.85C4919.57 2801.8 4898.55 2848.65 4898.55 2904.28C4898.55 2958.71 4919.57 3005.39 4961.87 3044.71C5004 3083.93 5055.08 3103.45 5115.12 3103.45C5175.27 3103.45 5226.32 3083.93 5268.48 3044.71C5310.74 3005.39 5331.8 2958.71 5331.8 2904.28C5331.8 2848.65 5310.74 2801.8 5268.48 2763.85ZM5191.99 2983.33C5170.99 3005.39 5145.31 3016.43 5115.12 3016.43C5084.96 3016.43 5059.35 3005.39 5038.33 2983.33C5017.37 2961.35 5006.9 2935.02 5006.9 2904.18C5006.9 2873.51 5017.37 2847.55 5038.33 2826.01C5059.35 2804.64 5084.96 2793.97 5115.12 2793.97C5145.31 2793.97 5170.99 2804.64 5191.99 2826.01C5212.95 2847.55 5223.44 2873.51 5223.44 2904.18C5223.44 2935.02 5212.95 2961.35 5191.99 2983.33Z" fill="#231916"/>
<path d="M5997.24 3002.81H6225.34V2538.54H5660.61V3002.81H5888.88V3213.67H5592.88V3300.69H6289.28V3213.67H5997.24V3002.81ZM5768.97 2625.69H6116.98V2915.85H5768.97V2625.69Z" fill="#231916"/>
<path d="M6863.53 2995.2H6449.66V2538.59H6341.27V3082.25H6863.53V3411.02H6971.82V2538.59H6863.53V2995.2Z" fill="#231916"/>
<path d="M7062.24 2625.67H7367.92V2799.75H7063.64V2886.87H7367.92V3080.33H7476.04V2538.55H7062.24V2625.67Z" fill="#231916"/>
<path d="M7582.48 2538.52V3411.02H7690.76V2625.68H7777.79V2538.52H7690.76H7582.48Z" fill="#231916"/>
<path d="M8361.23 3093.8H8469.59V2538.54H7854.46V2625.7H8361.23V3093.8Z" fill="#231916"/>
<path d="M8265.19 2844.22H8156.91V3211.69H8048.45V2844.22H7940.26V3211.69H7811.9V3298.75H8512.13V3211.69H8265.19V2844.22Z" fill="#231916"/>
<path d="M8538.07 3041.61H8698.7V3107.3H8603.89V3194.45H9060.39V3409.08H9168.68V3107.3H9077.73V3041.61H9234.5V2954.56H8538.07V3041.61ZM8806.89 3041.61H8969.37V3107.3H8806.89V3041.61Z" fill="#231916"/>
<path d="M8724.09 2856.68C8769.43 2897.4 8823.8 2917.78 8887.26 2917.78C8951.85 2917.78 9006.76 2897.4 9051.32 2856.68C9096.14 2816.06 9118.37 2767.1 9118.37 2709.89C9118.37 2652.69 9096.14 2603.72 9051.32 2562.97C9006.76 2522.24 8951.85 2502 8887.26 2502C8823.8 2502 8769.43 2522.24 8724.09 2562.97C8678.82 2603.72 8656.15 2652.69 8656.15 2709.89C8656.15 2767.1 8678.82 2816.06 8724.09 2856.68ZM8800.68 2624.68C8824.76 2600.78 8853.31 2588.85 8886.37 2588.85C8920.6 2588.85 8949.76 2600.78 8973.9 2624.68C8998.08 2648.52 9010.08 2676.86 9010.08 2709.89C9010.08 2742.85 8998.08 2771.34 8973.9 2795.03C8949.76 2818.9 8920.6 2830.73 8886.37 2830.73C8853.31 2830.73 8824.76 2818.9 8800.68 2795.03C8776.51 2771.34 8764.54 2742.85 8764.54 2709.89C8764.54 2676.86 8776.51 2648.52 8800.68 2624.68Z" fill="#231916"/>
<path d="M9785.66 2703.15H9677.38V2764.93C9668.28 2744.38 9656.11 2725.99 9640.62 2709.88C9625.13 2693.74 9606.39 2680.58 9584.61 2670.25H9721.93V2583.23H9534.25V2517.31H9426.06V2583.23H9234.51V2670.25H9380.28C9347.25 2686.91 9320.81 2709.37 9300.88 2737.51C9281.08 2765.72 9271.2 2797.76 9271.2 2833.69C9271.2 2885.09 9291.51 2929.26 9332.37 2966.47C9372.99 3003.67 9422.54 3022.23 9480.94 3022.23C9524.88 3022.23 9564.71 3011.57 9600.34 2990.33C9635.97 2968.96 9661.44 2941.03 9677.03 2906.15V2964.14H9785.66V3039.64V3046.31V3115.03H9416.25V3039.64H9307.89V3411H9894.02V3046.31V3039.64V2538.54H9785.66V2703.15ZM9553.36 2906.15C9533.73 2925.54 9510.34 2935.08 9483.06 2935.08C9454.34 2935.08 9429.99 2925.54 9409.78 2906.15C9389.47 2886.86 9379.59 2862.96 9379.59 2834.58C9379.59 2807.5 9389.47 2784.05 9409.78 2764.04C9429.99 2743.97 9454.34 2733.95 9483.06 2733.95C9510.34 2733.95 9533.73 2743.97 9553.36 2764.04C9572.78 2784.05 9582.56 2807.5 9582.56 2834.58C9582.56 2862.96 9572.78 2886.86 9553.36 2906.15ZM9785.66 3323.95H9416.25V3202.16H9785.66V3323.95ZM9687.09 2877.15C9688.32 2870.76 9689.31 2863.61 9689.99 2855.82C9690.61 2848.23 9690.95 2841.05 9690.95 2834.58C9690.95 2826.82 9690.61 2819.16 9689.99 2811.4C9689.31 2803.61 9687.53 2796.6 9685.1 2790.2H9785.66V2877.15H9687.09Z" fill="#231916"/>
<path d="M10477.8 2583.24H10290.2V2519.33H10181.8V2583.24H9992.18V2670.23H10477.8V2583.24Z" fill="#231916"/>
<path d="M10539.6 2538.53V3105.44H10290.2V3053.23C10335.2 3042.8 10372.2 3020.2 10401.3 2985.46C10430.3 2950.59 10444.8 2911.3 10444.8 2867.53C10444.8 2814.64 10424.8 2769.57 10384.5 2732.06C10344.4 2694.72 10295.2 2676.05 10236.9 2676.05C10180 2676.05 10130.9 2694.72 10090.2 2732.06C10049.3 2769.57 10029 2814.64 10029 2867.53C10029 2911.3 10043.5 2950.31 10072.6 2984.54C10101.5 3018.63 10137.9 3040.99 10181.8 3051.28V3105.44H9974.77V3192.43H10539.6V3411.03H10647.9V2538.53H10539.6ZM10167.1 2933.22C10147.1 2913.86 10137.3 2890.68 10137.3 2863.67C10137.3 2835.25 10147.1 2811.39 10167.1 2792.03C10186.8 2772.75 10210 2763.04 10236.9 2763.04C10264.9 2763.04 10288.6 2772.75 10307.8 2792.03C10326.9 2811.39 10336.6 2835.25 10336.6 2863.67C10336.6 2890.68 10326.9 2913.86 10307.8 2933.22C10288.6 2952.6 10264.9 2962.25 10236.9 2962.25C10210 2962.25 10186.8 2952.6 10167.1 2933.22Z" fill="#231916"/>
<path d="M3499.39 3735.25L3437.81 3653.87V3735.25H3400.98V3507.08H3437.81V3636.4L3493.1 3569.79H3539.15L3473.85 3645.32L3544.32 3735.25H3499.39Z" fill="#231916"/>
<path d="M3733.39 3717.45C3721.73 3731.06 3704.95 3737.83 3682.99 3737.83C3661.18 3737.83 3644.53 3731.06 3632.76 3717.45C3621.04 3703.98 3615.16 3682.16 3615.16 3652.41C3615.16 3637.75 3616.76 3625.03 3620.11 3614.15C3623.36 3603.55 3627.98 3594.9 3633.86 3588C3639.98 3580.99 3647.16 3575.99 3655.5 3572.64C3663.88 3569.16 3672.94 3567.58 3682.99 3567.58C3703.17 3567.58 3719.55 3574.32 3732.13 3587.65C3744.54 3600.99 3750.8 3622.5 3750.8 3652.41C3750.8 3682.16 3745.02 3703.98 3733.39 3717.45ZM3706.28 3612.17C3701.08 3603.62 3693.29 3599.38 3682.99 3599.38C3672.6 3599.38 3664.91 3603.55 3659.67 3612.03C3654.55 3620.34 3651.98 3633.95 3651.98 3652.41C3651.98 3669.51 3654.41 3682.57 3659.3 3691.94C3664.26 3701.38 3672.09 3706.06 3682.99 3706.06C3693.83 3706.06 3701.83 3701.45 3706.72 3692.22C3711.58 3682.91 3714.04 3669.51 3714.04 3652.41C3714.04 3634.12 3711.44 3620.48 3706.28 3612.17Z" fill="#231916"/>
<path d="M3895.39 3574.1C3902.88 3569.93 3910.71 3567.78 3918.92 3567.78C3923.57 3567.78 3929.01 3569.18 3935.06 3571.78C3941.18 3574.38 3945.52 3577.01 3947.95 3579.68L3935.84 3612.57C3933.59 3610.76 3930.58 3608.74 3926.85 3606.24C3922.95 3603.88 3918.2 3602.52 3912.39 3602.52C3906.37 3602.52 3901.17 3603.88 3896.66 3606.59C3892.15 3609.15 3888.45 3612.84 3885.41 3617.29C3882.47 3621.39 3880.31 3626.25 3878.84 3631.92C3877.37 3637.56 3876.66 3643.27 3876.66 3648.95V3735.25H3839.93V3604.57C3839.93 3598.86 3839.73 3592.91 3839.45 3586.72C3839.18 3580.63 3838.84 3574.82 3838.22 3569.56H3875.53C3875.9 3573.04 3876.28 3576.8 3876.52 3580.94C3876.79 3585.25 3876.9 3589.11 3876.9 3592.4C3881.82 3584.57 3888.04 3578.48 3895.39 3574.1Z" fill="#231916"/>
<path d="M4049.91 3665.32C4049.91 3678.56 4052.89 3689.02 4058.9 3696.78C4064.96 3704.51 4073.92 3708.3 4085.81 3708.3C4092.07 3708.3 4098.09 3706.46 4103.73 3702.73C4109.37 3699.04 4112.76 3694.18 4113.61 3688.23H4151.5C4151.05 3694.49 4149.04 3700.41 4145.75 3706.46C4142.54 3712.27 4137.99 3717.43 4132.15 3722.12C4126.54 3726.84 4119.77 3730.67 4111.87 3733.57C4103.94 3736.44 4095.39 3737.81 4086.12 3737.81C4064.38 3737.81 4046.8 3730.46 4033.57 3715.72C4020.27 3700.88 4013.67 3679.82 4013.67 3652.4C4013.67 3638.04 4015.55 3625.59 4019.31 3614.92C4023 3604.46 4028.13 3595.54 4034.66 3588.53C4041.02 3581.45 4048.31 3576.15 4056.85 3572.63C4065.3 3569.38 4074.29 3567.6 4083.69 3567.6C4093.13 3567.6 4102.12 3569.38 4110.54 3572.63C4118.95 3576.15 4126.37 3581.18 4132.73 3587.67C4139.05 3594.34 4144.11 3602.48 4147.94 3612.29C4151.84 3622.1 4153.69 3633.35 4153.69 3646.07V3665.32H4049.91ZM4115.22 3622.69C4113.99 3617.86 4112.01 3613.62 4109.3 3609.97C4106.54 3606.27 4103.12 3603.02 4098.84 3600.77C4094.5 3598.31 4089.47 3597.08 4083.69 3597.08C4078.05 3597.08 4073.16 3598.24 4068.99 3600.46C4064.85 3602.89 4061.3 3605.93 4058.32 3609.69C4055.66 3613.35 4053.5 3617.66 4052.1 3622.41C4050.66 3627.27 4049.91 3632.29 4049.91 3637.18H4117.41C4117.27 3632.43 4116.52 3627.58 4115.22 3622.69Z" fill="#231916"/>
<path d="M4327.26 3735.58C4326.71 3733.63 4326.23 3731.06 4325.89 3727.85C4325.45 3724.77 4325.28 3721.94 4325.28 3719.27C4319.26 3726.11 4312.42 3730.93 4304.52 3733.56C4296.79 3736.23 4289.82 3737.7 4283.66 3737.7C4265.47 3737.7 4251.9 3732.81 4243.08 3723.47C4234.15 3714.07 4229.71 3701.83 4229.71 3686.79C4229.71 3680.36 4230.77 3673.93 4233.06 3667.64C4235.45 3661.41 4238.77 3655.6 4243.28 3650.78C4248.1 3645.99 4253.75 3642.03 4260.45 3638.92C4267.12 3635.8 4275.08 3634.4 4284.18 3634.4H4325.28V3627.8C4325.28 3618.78 4322.99 3611.29 4318.51 3605.54C4313.96 3599.73 4306.74 3596.76 4297 3596.76C4289.72 3596.76 4283.36 3599.18 4277.75 3603.56C4272.18 3608.04 4269.17 3613.41 4268.62 3619.66H4232.72C4232.92 3612.18 4234.74 3605.06 4238.36 3598.67C4241.98 3592.17 4246.74 3586.7 4252.62 3582.22C4258.36 3577.61 4265 3573.92 4272.31 3571.45C4279.56 3568.92 4287.05 3567.59 4294.78 3567.59C4305.68 3567.59 4315.33 3569.2 4323.53 3572.1C4331.77 3575.21 4338.85 3579.25 4344.6 3584.55C4350.27 3589.68 4354.51 3595.66 4357.45 3602.6C4360.32 3609.68 4361.83 3617.27 4361.83 3625.17V3706.41C4361.83 3711.54 4361.93 3716.19 4362.17 3720.16C4362.48 3724.19 4363.33 3729.25 4364.7 3735.58H4327.26ZM4325.28 3661.55H4290.5C4282.78 3661.55 4276.66 3664.01 4272.07 3668.49C4267.42 3673.01 4265.1 3678.85 4265.1 3685.73C4265.1 3692.46 4267.53 3697.86 4272.31 3701.93C4277.13 3705.9 4283.36 3707.78 4290.91 3707.78C4301.82 3707.78 4310.3 3705.01 4316.25 3699.57C4322.3 3694.21 4325.28 3686.14 4325.28 3675.3V3661.55Z" fill="#231916"/>
<path d="M4675.18 3735.25V3633.8C4675.18 3624.16 4672.55 3616.02 4667.66 3609.59C4662.6 3603.16 4655.49 3599.91 4646.15 3599.91C4638.02 3599.91 4631.07 3603.43 4625.33 3610.1C4619.62 3617.01 4616.75 3625.22 4616.75 3634.82V3735.25H4580.02V3507.08H4616.75V3589.96C4622.08 3583.3 4628.37 3578 4635.62 3574.1C4643.01 3570.3 4650.8 3568.52 4658.98 3568.52C4666.09 3568.52 4672.86 3569.79 4679.32 3572.25C4685.75 3574.82 4691.29 3578.65 4696.04 3583.64C4700.72 3588.66 4704.52 3594.68 4707.39 3602.31C4710.13 3609.45 4711.6 3617.86 4711.6 3627.47V3735.25H4675.18Z" fill="#231916"/>
<path d="M4891.61 3735.58C4891.02 3733.63 4890.61 3731.06 4890.27 3727.85C4889.96 3724.77 4889.73 3721.94 4889.73 3719.27C4883.78 3726.11 4876.87 3730.93 4869 3733.56C4861.14 3736.23 4854.2 3737.7 4847.98 3737.7C4829.82 3737.7 4816.31 3732.81 4807.46 3723.47C4798.53 3714.07 4794.12 3701.83 4794.12 3686.79C4794.12 3680.36 4795.25 3673.93 4797.51 3667.64C4799.76 3661.41 4803.15 3655.6 4807.73 3650.78C4812.42 3645.99 4818.16 3642.03 4824.86 3638.92C4831.56 3635.8 4839.56 3634.4 4848.59 3634.4H4889.73V3627.8C4889.73 3618.78 4887.47 3611.29 4882.89 3605.54C4878.37 3599.73 4871.23 3596.76 4861.41 3596.76C4854.13 3596.76 4847.74 3599.18 4842.16 3603.56C4836.66 3608.04 4833.55 3613.41 4833.03 3619.66H4797.13C4797.3 3612.18 4799.22 3605.06 4802.74 3598.67C4806.4 3592.17 4811.18 3586.7 4816.96 3582.22C4822.78 3577.61 4829.41 3573.92 4836.66 3571.45C4844.04 3568.92 4851.53 3567.59 4859.16 3567.59C4870.17 3567.59 4879.67 3569.2 4887.95 3572.1C4896.26 3575.21 4903.27 3579.25 4909.01 3584.55C4914.65 3589.68 4918.96 3595.66 4921.87 3602.6C4924.74 3609.68 4926.21 3617.27 4926.21 3625.17V3706.41C4926.21 3711.54 4926.41 3716.19 4926.69 3720.16C4926.96 3724.19 4927.75 3729.25 4929.25 3735.58H4891.61ZM4889.73 3661.55H4854.85C4847.19 3661.55 4841.14 3664.01 4836.45 3668.49C4831.77 3673.01 4829.48 3678.85 4829.48 3685.73C4829.48 3692.46 4831.94 3697.86 4836.66 3701.93C4841.48 3705.9 4847.74 3707.78 4855.4 3707.78C4866.3 3707.78 4874.78 3705.01 4880.73 3699.57C4886.75 3694.21 4889.73 3686.14 4889.73 3675.3V3661.55Z" fill="#231916"/>
<path d="M5076.34 3574.1C5083.69 3569.93 5091.49 3567.78 5099.73 3567.78C5104.45 3567.78 5109.78 3569.18 5115.97 3571.78C5122.02 3574.38 5126.4 3577.01 5128.79 3579.68L5116.59 3612.57C5114.43 3610.76 5111.39 3608.74 5107.63 3606.24C5103.8 3603.88 5099.01 3602.52 5093.2 3602.52C5087.25 3602.52 5082.05 3603.88 5077.47 3606.59C5073.03 3609.15 5069.3 3612.84 5066.19 3617.29C5063.35 3621.39 5061.13 3626.25 5059.69 3631.92C5058.25 3637.56 5057.47 3643.27 5057.47 3648.95V3735.25H5020.71V3604.57C5020.71 3598.86 5020.57 3592.91 5020.33 3586.72C5020.06 3580.63 5019.62 3574.82 5019.07 3569.56H5056.44C5056.72 3573.04 5057.19 3576.8 5057.4 3580.94C5057.64 3585.25 5057.78 3589.11 5057.78 3592.4C5062.66 3584.57 5068.85 3578.48 5076.34 3574.1Z" fill="#231916"/>
<path d="M5398.02 3735.25V3634.41C5398.02 3623.27 5395.62 3614.68 5390.63 3608.73C5385.74 3602.61 5378.94 3599.64 5370.22 3599.64C5361.36 3599.64 5354.25 3602.89 5349.12 3609.21C5343.96 3615.68 5341.36 3623.81 5341.36 3633.49V3735.25H5304.88V3634.41C5304.88 3624.16 5302.35 3615.68 5297.15 3609.21C5292.19 3602.89 5284.94 3599.64 5275.68 3599.64C5268.02 3599.64 5261.62 3602.96 5256.19 3609.59C5250.95 3616.19 5248.12 3624.46 5248.12 3634.41V3735.25H5211.39V3602.03C5211.39 3598.58 5211.32 3595.54 5211.12 3593.07C5210.98 3590.51 5210.81 3588.12 5210.61 3585.93C5210.4 3583.64 5210.06 3581.24 5209.85 3578.65C5209.44 3576.29 5209.03 3573.24 5208.9 3569.58H5246.85C5247.43 3572.35 5247.74 3576.01 5248.05 3579.98C5248.32 3584.15 5248.53 3587.67 5248.53 3590.51V3589.96C5251.98 3583.64 5257.14 3578.47 5263.98 3574.1C5270.96 3569.93 5278.41 3567.81 5286.58 3567.81C5295.34 3567.81 5303.75 3569.79 5311.92 3573.96C5320.16 3578.13 5326.96 3585.55 5332.33 3596.53C5337.6 3586.61 5344.81 3579.26 5353.87 3574.61C5362.93 3570.06 5371.62 3567.81 5379.76 3567.81C5396.07 3567.81 5409.33 3573.41 5419.56 3584.56C5429.71 3595.54 5434.74 3610.24 5434.74 3628.63V3735.25H5398.02Z" fill="#231916"/>
<path d="M5639.84 3717.45C5628.28 3731.06 5611.49 3737.83 5589.51 3737.83C5567.69 3737.83 5550.94 3731.06 5539.17 3717.45C5527.51 3703.98 5521.63 3682.16 5521.63 3652.41C5521.63 3637.75 5523.31 3625.03 5526.59 3614.15C5529.87 3603.55 5534.46 3594.9 5540.44 3588C5546.46 3580.99 5553.6 3575.99 5561.98 3572.64C5570.43 3569.16 5579.49 3567.58 5589.51 3567.58C5609.58 3567.58 5625.92 3574.32 5638.54 3587.65C5651.09 3600.99 5657.28 3622.5 5657.28 3652.41C5657.28 3682.16 5651.53 3703.98 5639.84 3717.45ZM5612.79 3612.17C5607.53 3603.62 5599.87 3599.38 5589.51 3599.38C5579.11 3599.38 5571.35 3603.55 5566.12 3612.03C5561.09 3620.34 5558.49 3633.95 5558.49 3652.41C5558.49 3669.51 5560.89 3682.57 5565.84 3691.94C5570.73 3701.38 5578.5 3706.06 5589.51 3706.06C5600.41 3706.06 5608.31 3701.45 5613.13 3692.22C5618.12 3682.91 5620.59 3669.51 5620.59 3652.41C5620.59 3634.12 5617.92 3620.48 5612.79 3612.17Z" fill="#231916"/>
<path d="M5842.27 3735.25V3634.41C5842.27 3624.74 5839.64 3616.67 5834.37 3609.9C5829.14 3603.02 5821.93 3599.64 5812.59 3599.64C5803.5 3599.64 5796.28 3602.96 5790.64 3609.73C5785.14 3616.46 5782.33 3624.67 5782.33 3634.41V3735.25H5745.85V3602.51C5745.85 3598 5745.54 3592.63 5745.13 3586.85C5744.65 3581.11 5744.04 3575.23 5743.11 3569.58H5781.31C5781.82 3572.63 5782.16 3576.29 5782.43 3580.39C5782.78 3584.42 5782.84 3588.25 5782.84 3591.91V3591.36C5787.94 3583.09 5794.74 3577.21 5803.22 3573.48C5811.63 3569.79 5818.99 3567.81 5824.83 3567.81C5841.01 3567.81 5854.03 3573.35 5863.92 3584.36C5873.9 3595.4 5878.89 3610.1 5878.89 3628.63V3735.25H5842.27Z" fill="#231916"/>
<path d="M5974.37 3505.55H6011.77V3543.3H5974.37V3505.55ZM5974.98 3569.77H6011.57V3735.23H5974.98V3569.77Z" fill="#231916"/>
<path d="M6221.87 3707.96C6218.45 3714.39 6214.17 3719.75 6208.91 3724.16C6203.64 3728.47 6197.69 3731.86 6191.3 3734.32C6184.67 3736.68 6178.17 3737.81 6171.88 3737.81C6148.93 3737.81 6131.6 3730.22 6119.63 3714.83C6107.63 3699.61 6101.61 3678.82 6101.61 3652.39C6101.61 3626.24 6107.63 3605.52 6119.63 3590.3C6131.6 3575.08 6148.93 3567.6 6171.71 3567.6C6178.54 3567.6 6185.38 3569.17 6191.85 3572.11C6198.51 3575.22 6204.46 3579.12 6209.8 3583.94C6214.79 3588.9 6219.06 3594.47 6222.31 3600.83C6225.53 3607.12 6227.2 3613.62 6227.2 3620.29H6190.89C6190.55 3614.61 6188.26 3609.69 6183.88 3605.52C6179.5 3601.41 6174.34 3599.36 6168.29 3599.36C6157.52 3599.36 6149.93 3603.94 6145.28 3613.07C6140.45 3622.06 6138.09 3635.26 6138.09 3652.39C6138.09 3671.27 6140.63 3685.12 6145.72 3693.8C6150.88 3702.21 6158.68 3706.69 6169.07 3706.69C6174.58 3706.69 6179.5 3704.91 6183.88 3701.39C6188.26 3697.84 6190.61 3692.91 6191.3 3686.62H6226.96C6226.96 3694.66 6225.18 3701.8 6221.87 3707.96Z" fill="#231916"/>
<path d="M6392.91 3735.57C6392.3 3733.62 6391.78 3731.05 6391.41 3727.84C6390.96 3724.76 6390.89 3721.92 6390.89 3719.26C6385.05 3726.1 6377.93 3730.92 6370.14 3733.55C6362.34 3736.22 6355.44 3737.69 6349.21 3737.69C6331.09 3737.69 6317.52 3732.8 6308.59 3723.46C6299.67 3714.06 6295.29 3701.82 6295.29 3686.77C6295.29 3680.35 6296.45 3673.92 6298.64 3667.63C6300.9 3661.4 6304.42 3655.59 6308.76 3650.77C6313.69 3645.98 6319.29 3642.02 6326.13 3638.9C6332.87 3635.79 6340.63 3634.39 6349.76 3634.39H6390.89V3627.79C6390.89 3618.77 6388.64 3611.28 6384.09 3605.53C6379.61 3599.72 6372.26 3596.75 6362.55 3596.75C6355.27 3596.75 6348.87 3599.17 6343.37 3603.55C6337.83 3608.03 6334.95 3613.4 6334.17 3619.65H6298.27C6298.54 3612.17 6300.39 3605.05 6303.98 3598.66C6307.53 3592.16 6312.28 3586.69 6318.13 3582.21C6324.01 3577.6 6330.58 3573.9 6337.83 3571.44C6345.38 3568.91 6352.84 3567.58 6360.33 3567.58C6371.2 3567.58 6380.91 3569.19 6389.15 3572.09C6397.46 3575.2 6404.47 3579.24 6410.32 3584.54C6415.85 3589.67 6420.23 3595.65 6423.03 3602.59C6425.91 3609.67 6427.38 3617.26 6427.38 3625.16V3706.4C6427.38 3711.53 6427.48 3716.18 6427.82 3720.15C6427.99 3724.18 6428.98 3729.24 6430.39 3735.57H6392.91ZM6390.89 3661.54H6356.05C6348.43 3661.54 6342.31 3664 6337.59 3668.48C6333.04 3672.99 6330.75 3678.84 6330.75 3685.71C6330.75 3692.45 6333.11 3697.85 6337.83 3701.92C6342.85 3705.89 6348.87 3707.77 6356.56 3707.77C6367.51 3707.77 6376.02 3705 6381.97 3699.56C6387.82 3694.19 6390.89 3686.12 6390.89 3675.29V3661.54Z" fill="#231916"/>
<path d="M6673.56 3665.31C6673.56 3678.55 6676.64 3689.01 6682.66 3696.77C6688.61 3704.5 6697.63 3708.29 6709.53 3708.29C6715.83 3708.29 6721.81 3706.45 6727.49 3702.72C6733.16 3699.03 6736.51 3694.17 6737.3 3688.22H6775.18C6774.67 3694.48 6772.93 3700.39 6769.51 3706.45C6766.33 3712.26 6761.78 3717.42 6756 3722.11C6750.22 3726.83 6743.49 3730.66 6735.62 3733.56C6727.66 3736.43 6719.18 3737.8 6709.88 3737.8C6687.99 3737.8 6670.42 3730.45 6657.29 3715.71C6643.95 3700.87 6637.42 3679.81 6637.42 3652.39C6637.42 3638.03 6639.23 3625.58 6642.93 3614.91C6646.69 3604.45 6651.85 3595.53 6658.42 3588.52C6664.74 3581.44 6672.23 3576.14 6680.57 3572.62C6689.05 3569.37 6697.98 3567.59 6707.35 3567.59C6716.89 3567.59 6725.74 3569.37 6734.22 3572.62C6742.63 3576.14 6750.09 3581.16 6756.45 3587.66C6762.84 3594.33 6767.83 3602.47 6771.7 3612.28C6775.56 3622.09 6777.47 3633.34 6777.47 3646.06V3665.31H6673.56ZM6739.04 3622.67C6737.71 3617.85 6735.69 3613.61 6733.09 3609.96C6730.29 3606.26 6726.87 3603.01 6722.56 3600.76C6718.22 3598.3 6713.3 3597.06 6707.35 3597.06C6701.74 3597.06 6696.95 3598.23 6692.81 3600.45C6688.61 3602.88 6684.95 3605.92 6682.21 3609.68C6679.34 3613.34 6677.32 3617.65 6675.82 3622.4C6674.35 3627.26 6673.56 3632.28 6673.56 3637.17H6741.23C6741.06 3632.42 6740.27 3627.56 6739.04 3622.67Z" fill="#231916"/>
<path d="M6935.82 3732C6927.51 3735.65 6920.06 3737.67 6913.32 3737.67C6894.86 3737.67 6880.94 3730.94 6871.68 3717.43C6862.48 3703.86 6857.73 3682.14 6857.73 3652.4C6857.73 3624.94 6862.99 3603.94 6873.15 3589.72C6883.37 3575.22 6897.32 3568.18 6914.72 3568.18C6921.84 3568.18 6929.15 3569.79 6936.78 3573.14C6944.4 3576.52 6950.7 3581.45 6955.58 3588.11V3507.08H6992.38V3704.06C6992.38 3708.64 6992.38 3713.67 6992.62 3719.07C6992.82 3724.51 6993.44 3729.91 6994.56 3735.24H6957.7C6956.82 3733.06 6956.2 3729.91 6955.86 3726.05C6955.45 3722.11 6955.45 3718.35 6955.58 3714.83C6950.7 3722.46 6943.96 3728.3 6935.82 3732ZM6948.17 3612.87C6943.17 3604.15 6935.38 3599.91 6925.15 3599.91C6913.77 3599.91 6905.87 3604.46 6901.32 3613.31C6896.77 3622.13 6894.41 3635.26 6894.41 3652.4C6894.41 3671.27 6896.88 3684.84 6901.49 3693.32C6906.07 3701.5 6913.94 3705.74 6925.15 3705.74C6935.38 3705.74 6943.17 3701.8 6948.17 3693.8C6953.05 3685.7 6955.58 3671.95 6955.58 3652.4C6955.58 3634.58 6953.05 3621.42 6948.17 3612.87Z" fill="#231916"/>
<path d="M7183.57 3735.24C7182.95 3733.12 7182.51 3730.65 7182.1 3727.75C7181.65 3724.77 7181.38 3722.14 7181.38 3719.82C7175.74 3725.83 7169.21 3730.42 7161.62 3733.12C7154.06 3735.89 7146.64 3737.22 7139.12 3737.22C7122.91 3737.22 7109.95 3732.19 7099.97 3721.94C7090.26 3711.75 7085.27 3696.56 7085.27 3676.49V3569.57H7122.47V3670.44C7122.47 3682 7125.2 3690.82 7130.43 3696.97C7135.77 3702.92 7142.88 3706.04 7151.98 3706.04C7160.9 3706.04 7168.18 3702.51 7173.69 3695.71C7179.19 3688.77 7181.93 3680.39 7181.93 3670.44V3569.57H7218.34V3703.2C7218.34 3709.01 7218.58 3714.72 7219.03 3719.82C7219.37 3724.91 7219.88 3730.14 7220.6 3735.24H7183.57Z" fill="#231916"/>
<path d="M7426.41 3707.96C7422.99 3714.39 7418.78 3719.75 7413.52 3724.16C7408.28 3728.47 7402.33 3731.86 7395.77 3734.32C7389.27 3736.68 7382.71 3737.81 7376.42 3737.81C7353.47 3737.81 7336.14 3730.22 7324.17 3714.83C7312.17 3699.61 7306.05 3678.82 7306.05 3652.39C7306.05 3626.24 7312.17 3605.52 7324.17 3590.3C7336.14 3575.08 7353.47 3567.6 7376.14 3567.6C7383.15 3567.6 7389.82 3569.17 7396.45 3572.11C7403.12 3575.22 7409.07 3579.12 7414.34 3583.94C7419.29 3588.9 7423.5 3594.47 7426.85 3600.83C7430.17 3607.12 7431.74 3613.62 7431.74 3620.29H7395.5C7395.09 3614.61 7392.79 3609.69 7388.42 3605.52C7384.11 3601.41 7378.88 3599.36 7372.83 3599.36C7362.16 3599.36 7354.53 3603.94 7349.71 3613.07C7344.89 3622.06 7342.7 3635.26 7342.7 3652.39C7342.7 3671.27 7345.23 3685.12 7350.26 3693.8C7355.32 3702.21 7363.29 3706.69 7373.72 3706.69C7379.12 3706.69 7384.11 3704.91 7388.42 3701.39C7392.79 3697.84 7395.32 3692.91 7395.77 3686.62H7431.5C7431.5 3694.66 7429.62 3701.8 7426.41 3707.96Z" fill="#231916"/>
<path d="M7597.35 3735.57C7596.74 3733.62 7596.4 3731.05 7595.95 3727.84C7595.61 3724.76 7595.44 3721.92 7595.44 3719.26C7589.49 3726.1 7582.55 3730.92 7574.79 3733.55C7566.89 3736.22 7559.88 3737.69 7553.76 3737.69C7535.57 3737.69 7521.99 3732.8 7513.07 3723.46C7504.38 3714.06 7499.77 3701.82 7499.77 3686.77C7499.77 3680.35 7500.9 3673.92 7503.08 3667.63C7505.44 3661.4 7508.86 3655.59 7513.31 3650.77C7518.13 3645.98 7523.91 3642.02 7530.57 3638.9C7537.31 3635.79 7545.28 3634.39 7554.27 3634.39H7595.44V3627.79C7595.44 3618.77 7593.15 3611.28 7588.7 3605.53C7584.15 3599.72 7576.97 3596.75 7567.16 3596.75C7559.81 3596.75 7553.52 3599.17 7547.91 3603.55C7542.37 3608.03 7539.33 3613.4 7538.78 3619.65H7502.91C7503.08 3612.17 7504.93 3605.05 7508.49 3598.66C7512.08 3592.16 7517 3586.69 7522.78 3582.21C7528.45 3577.6 7535.12 3573.9 7542.47 3571.44C7549.72 3568.91 7557.35 3567.58 7564.97 3567.58C7575.81 3567.58 7585.45 3569.19 7593.59 3572.09C7601.9 3575.2 7609.01 3579.24 7614.79 3584.54C7620.36 3589.67 7624.67 3595.65 7627.54 3602.59C7630.45 3609.67 7631.92 3617.26 7631.92 3625.16V3706.4C7631.92 3711.53 7632.13 3716.18 7632.26 3720.15C7632.64 3724.18 7633.49 3729.24 7635 3735.57H7597.35ZM7595.44 3661.54H7560.49C7552.97 3661.54 7546.75 3664 7542.2 3668.48C7537.48 3672.99 7535.29 3678.84 7535.29 3685.71C7535.29 3692.45 7537.65 3697.85 7542.47 3701.92C7547.29 3705.89 7553.52 3707.77 7561.01 3707.77C7571.98 3707.77 7580.46 3705 7586.48 3699.56C7592.46 3694.19 7595.44 3686.12 7595.44 3675.29V3661.54Z" fill="#231916"/>
<path d="M7777.7 3735.84C7762.21 3735.84 7750.72 3732.35 7743.3 3725.58C7735.57 3718.6 7731.91 3706.81 7731.91 3689.88V3602.48H7713.86V3572.98H7731.91V3523.12H7768.4V3572.98H7798.18V3602.48H7768.4V3686.63C7768.4 3694.67 7769.97 3699.8 7773.22 3702.19C7776.36 3704.79 7780.4 3706.05 7785.39 3706.05H7798.18V3735.84H7777.7Z" fill="#231916"/>
<path d="M7888.27 3505.55H7925.64V3543.3H7888.27V3505.55ZM7888.78 3569.77H7925.37V3735.23H7888.78V3569.77Z" fill="#231916"/>
<path d="M8134.5 3717.45C8122.84 3731.06 8106.05 3737.83 8084.17 3737.83C8062.25 3737.83 8045.53 3731.06 8033.84 3717.45C8022.11 3703.98 8016.23 3682.16 8016.23 3652.41C8016.23 3637.75 8017.97 3625.03 8021.22 3614.15C8024.37 3603.55 8029.02 3594.9 8035.07 3588C8040.98 3580.99 8048.27 3575.99 8056.58 3572.64C8064.99 3569.16 8074.08 3567.58 8084.17 3567.58C8104.31 3567.58 8120.65 3574.32 8133.17 3587.65C8145.68 3600.99 8151.91 3622.5 8151.91 3652.41C8151.91 3682.16 8146.13 3703.98 8134.5 3717.45ZM8107.35 3612.17C8102.26 3603.62 8094.5 3599.38 8084.17 3599.38C8073.74 3599.38 8065.94 3603.55 8060.78 3612.03C8055.72 3620.34 8053.09 3633.95 8053.09 3652.41C8053.09 3669.51 8055.45 3682.57 8060.44 3691.94C8065.33 3701.38 8073.13 3706.06 8084.17 3706.06C8095.01 3706.06 8102.87 3701.45 8107.69 3692.22C8112.72 3682.91 8115.05 3669.51 8115.05 3652.41C8115.05 3634.12 8112.72 3620.48 8107.35 3612.17Z" fill="#231916"/>
<path d="M8336.88 3735.25V3634.41C8336.88 3624.74 8334.28 3616.67 8329.02 3609.9C8323.68 3603.02 8316.61 3599.64 8307.24 3599.64C8298.21 3599.64 8290.76 3602.96 8285.25 3609.73C8279.81 3616.46 8276.94 3624.67 8276.94 3634.41V3735.25H8240.42V3602.51C8240.42 3598 8240.25 3592.63 8239.81 3586.85C8239.36 3581.11 8238.68 3575.23 8237.72 3569.58H8275.78C8276.33 3572.63 8276.84 3576.29 8277.11 3580.39C8277.28 3584.42 8277.56 3588.25 8277.56 3591.91V3591.37C8282.52 3583.09 8289.35 3577.21 8297.77 3573.48C8306.25 3569.79 8313.53 3567.81 8319.48 3567.81C8335.58 3567.81 8348.54 3573.35 8358.53 3584.36C8368.51 3595.4 8373.3 3610.1 8373.3 3628.64V3735.25H8336.88Z" fill="#231916"/>
<path d="M8677.35 3735.58C8676.9 3733.63 8676.35 3731.06 8676.01 3727.85C8675.74 3724.77 8675.5 3721.94 8675.5 3719.27C8669.48 3726.11 8662.54 3730.93 8654.85 3733.56C8647.05 3736.23 8639.94 3737.7 8633.82 3737.7C8615.7 3737.7 8602.05 3732.81 8593.2 3723.47C8584.38 3714.07 8579.9 3701.83 8579.9 3686.79C8579.9 3680.36 8580.96 3673.93 8583.21 3667.64C8585.5 3661.41 8588.92 3655.6 8593.47 3650.78C8598.22 3645.99 8603.9 3642.03 8610.74 3638.92C8617.3 3635.8 8625.27 3634.4 8634.43 3634.4H8675.5V3627.8C8675.5 3618.78 8673.21 3611.29 8668.76 3605.54C8664.11 3599.73 8656.93 3596.76 8647.15 3596.76C8639.94 3596.76 8633.58 3599.18 8627.9 3603.56C8622.47 3608.04 8619.39 3613.41 8618.77 3619.66H8582.87C8583.08 3612.18 8584.99 3605.06 8588.65 3598.67C8592.24 3592.17 8596.99 3586.7 8602.77 3582.22C8608.62 3577.61 8615.08 3573.92 8622.47 3571.45C8629.89 3568.92 8637.24 3567.59 8644.96 3567.59C8655.91 3567.59 8665.51 3569.2 8673.75 3572.1C8681.89 3575.21 8689.07 3579.25 8694.85 3584.55C8700.53 3589.68 8704.73 3595.66 8707.61 3602.6C8710.51 3609.68 8712.02 3617.27 8712.02 3625.17V3706.41C8712.02 3711.54 8712.08 3716.19 8712.43 3720.16C8712.7 3724.19 8713.59 3729.25 8714.99 3735.58H8677.35ZM8675.5 3661.55H8640.55C8633.07 3661.55 8626.91 3664.01 8622.36 3668.49C8617.64 3673.01 8615.35 3678.85 8615.35 3685.73C8615.35 3692.46 8617.71 3697.86 8622.47 3701.93C8627.25 3705.9 8633.58 3707.78 8641.17 3707.78C8652.04 3707.78 8660.52 3705.01 8666.57 3699.57C8672.42 3694.21 8675.5 3686.14 8675.5 3675.3V3661.55Z" fill="#231916"/>
<path d="M8909.05 3724.26C8897.59 3733.39 8880.77 3737.8 8858.88 3737.8C8851.09 3737.8 8843.5 3736.78 8836.04 3734.59C8828.59 3732.23 8822.13 3729.15 8816.25 3724.91C8810.47 3720.77 8805.92 3715.58 8802.26 3709.39C8798.64 3703.06 8796.93 3696.05 8796.72 3687.95H8832.9C8834.2 3694.34 8837.27 3699.03 8842.06 3702.07C8846.88 3705.08 8853.21 3706.72 8861.24 3706.72C8870.17 3706.72 8877.11 3704.98 8882.17 3701.49C8887.09 3698 8889.52 3692.94 8889.52 3685.93C8889.52 3681.08 8887.85 3677.11 8884.36 3674.07C8881.04 3671.09 8876.56 3669.25 8871.23 3668.25L8844.9 3664.01C8831.5 3661.83 8820.45 3656.59 8811.87 3647.91C8803.22 3639.43 8798.91 3629.51 8798.91 3618.3C8798.91 3610.71 8800.48 3603.63 8803.83 3597.54C8807.05 3591.39 8811.43 3585.95 8817.03 3581.64C8822.81 3577.2 8829.41 3573.78 8836.83 3571.28C8844.35 3568.79 8852.39 3567.59 8861 3567.59C8870.1 3567.59 8878.58 3568.99 8886.38 3571.52C8894.17 3574.36 8900.91 3577.68 8906.41 3582.23C8912.19 3586.6 8916.91 3591.77 8919.99 3597.34C8923.24 3603.15 8924.88 3608.93 8924.98 3614.74H8889.52C8888.46 3610.23 8885.59 3606.26 8880.77 3602.47C8875.88 3598.84 8870.1 3597.06 8863.19 3597.06C8855.4 3597.06 8848.83 3598.84 8843.57 3602.43C8838.4 3606.02 8835.67 3610.5 8835.67 3616.35C8835.67 3621.07 8837.27 3624.93 8840.49 3627.6C8843.67 3630.44 8847.94 3632.28 8853.38 3632.97L8879.54 3637.21C8893.45 3639.43 8904.77 3645.14 8913.42 3654C8922 3662.89 8926.38 3673.14 8926.38 3684.74C8926.38 3702.07 8920.6 3715.17 8909.05 3724.26Z" fill="#231916"/>
<path d="M9112.23 3724.26C9100.74 3733.39 9083.95 3737.8 9061.97 3737.8C9054.17 3737.8 9046.65 3736.78 9039.3 3734.59C9031.88 3732.23 9025.31 3729.15 9019.54 3724.91C9013.76 3720.77 9009.11 3715.58 9005.45 3709.39C9002.03 3703.06 8999.91 3696.05 8999.91 3687.95H9036.15C9037.38 3694.34 9040.53 3699.03 9045.25 3702.07C9050 3705.08 9056.46 3706.72 9064.5 3706.72C9073.35 3706.72 9080.36 3704.98 9085.25 3701.49C9090.35 3698 9092.71 3692.94 9092.71 3685.93C9092.71 3681.08 9091.14 3677.11 9087.65 3674.07C9084.19 3671.09 9079.85 3669.25 9074.48 3668.25L9048.15 3664.01C9034.75 3661.83 9023.64 3656.59 9015.06 3647.91C9006.3 3639.43 9002.03 3629.51 9002.03 3618.3C9002.03 3610.71 9003.67 3603.63 9007.09 3597.54C9010.24 3591.39 9014.82 3585.95 9020.32 3581.64C9026 3577.2 9032.49 3573.78 9040.09 3571.28C9047.64 3568.79 9055.68 3567.59 9064.16 3567.59C9073.35 3567.59 9081.66 3568.99 9089.56 3571.52C9097.36 3574.36 9103.99 3577.68 9109.77 3582.23C9115.55 3586.6 9120.03 3591.77 9123.17 3597.34C9126.32 3603.15 9128.06 3608.93 9128.27 3614.74H9092.71C9091.65 3610.23 9088.78 3606.26 9083.95 3602.47C9079.13 3598.84 9073.35 3597.06 9066.38 3597.06C9058.65 3597.06 9051.98 3598.84 9046.65 3602.43C9041.42 3606.02 9038.96 3610.5 9038.96 3616.35C9038.96 3621.07 9040.53 3624.93 9043.68 3627.6C9046.82 3630.44 9051.03 3632.28 9056.63 3632.97L9082.83 3637.21C9096.74 3639.43 9108.03 3645.14 9116.61 3654C9125.29 3662.89 9129.57 3673.14 9129.57 3684.74C9129.57 3702.07 9123.86 3715.17 9112.23 3724.26Z" fill="#231916"/>
<path d="M9325.38 3717.45C9313.83 3731.06 9296.94 3737.83 9275.05 3737.83C9253.27 3737.83 9236.45 3731.06 9224.82 3717.45C9213.16 3703.98 9207.28 3682.16 9207.28 3652.41C9207.28 3637.75 9208.86 3625.03 9212.04 3614.15C9215.25 3603.55 9220 3594.9 9226.02 3588C9231.97 3580.99 9239.25 3575.99 9247.49 3572.64C9255.87 3569.16 9265 3567.58 9275.05 3567.58C9295.09 3567.58 9311.57 3574.32 9323.98 3587.65C9336.6 3600.99 9342.89 3622.5 9342.89 3652.41C9342.89 3682.16 9337.04 3703.98 9325.38 3717.45ZM9298.34 3612.17C9293.18 3603.62 9285.48 3599.38 9275.05 3599.38C9264.73 3599.38 9256.83 3603.55 9251.67 3612.03C9246.6 3620.34 9243.97 3633.95 9243.97 3652.41C9243.97 3669.51 9246.43 3682.57 9251.25 3691.94C9256.21 3701.38 9264.11 3706.06 9275.05 3706.06C9285.93 3706.06 9293.79 3701.45 9298.78 3692.22C9303.57 3682.91 9306.07 3669.51 9306.07 3652.41C9306.07 3634.12 9303.57 3620.48 9298.34 3612.17Z" fill="#231916"/>
<path d="M9544.06 3707.97C9540.64 3714.4 9536.23 3719.76 9531.1 3724.17C9525.84 3728.48 9519.99 3731.87 9513.43 3734.33C9506.86 3736.69 9500.36 3737.82 9494.07 3737.82C9471.13 3737.82 9453.73 3730.23 9441.72 3714.84C9429.72 3699.62 9423.81 3678.84 9423.81 3652.4C9423.81 3626.25 9429.72 3605.53 9441.72 3590.31C9453.73 3575.09 9471.06 3567.61 9493.73 3567.61C9500.6 3567.61 9507.37 3569.18 9514.04 3572.12C9520.68 3575.23 9526.73 3579.13 9531.96 3583.95C9536.99 3588.91 9541.16 3594.48 9544.4 3600.84C9547.72 3607.13 9549.4 3613.63 9549.4 3620.3H9513.08C9512.64 3614.62 9510.35 3609.7 9506.07 3605.53C9501.6 3601.42 9496.54 3599.37 9490.48 3599.37C9479.81 3599.37 9472.12 3603.95 9467.3 3613.08C9462.65 3622.08 9460.22 3635.27 9460.22 3652.4C9460.22 3671.28 9462.75 3685.13 9467.81 3693.81C9472.98 3702.22 9480.87 3706.7 9491.27 3706.7C9496.77 3706.7 9501.6 3704.92 9506.07 3701.4C9510.35 3697.85 9512.74 3692.92 9513.43 3686.63H9549.16C9549.16 3694.67 9547.38 3701.81 9544.06 3707.97Z" fill="#231916"/>
<path d="M9631.86 3505.55H9669.16V3543.3H9631.86V3505.55ZM9632.37 3569.77H9668.79V3735.23H9632.37V3569.77Z" fill="#231916"/>
<path d="M9852.98 3735.57C9852.54 3733.62 9852.02 3731.06 9851.68 3727.85C9851.34 3724.77 9851.24 3721.93 9851.24 3719.26C9845.19 3726.1 9838.28 3730.92 9830.48 3733.56C9822.62 3736.22 9815.68 3737.69 9809.49 3737.69C9791.26 3737.69 9777.79 3732.8 9768.87 3723.47C9759.91 3714.07 9755.57 3701.83 9755.57 3686.78C9755.57 3680.35 9756.7 3673.92 9758.88 3667.63C9761.24 3661.41 9764.56 3655.6 9769.21 3650.78C9773.83 3645.99 9779.54 3642.02 9786.27 3638.91C9793.01 3635.8 9800.98 3634.4 9810 3634.4H9851.24V3627.8C9851.24 3618.77 9848.88 3611.28 9844.3 3605.54C9839.78 3599.73 9832.5 3596.75 9822.86 3596.75C9815.61 3596.75 9809.15 3599.18 9803.51 3603.56C9798 3608.03 9795.03 3613.4 9794.51 3619.66H9758.54C9758.71 3612.17 9760.63 3605.06 9764.39 3598.67C9767.91 3592.17 9772.53 3586.7 9778.41 3582.22C9784.19 3577.6 9790.82 3573.91 9798.21 3571.45C9805.56 3568.92 9813.05 3567.58 9820.6 3567.58C9831.61 3567.58 9841.08 3569.19 9849.39 3572.1C9857.63 3575.21 9864.71 3579.24 9870.49 3584.54C9875.99 3589.67 9880.37 3595.66 9883.28 3602.6C9886.15 3609.68 9887.76 3617.27 9887.76 3625.17V3706.41C9887.76 3711.54 9887.76 3716.19 9888.1 3720.15C9888.37 3724.19 9889.33 3729.25 9890.63 3735.57H9852.98ZM9851.24 3661.55H9816.23C9808.7 3661.55 9802.55 3664.01 9797.83 3668.49C9793.28 3673 9791.03 3678.85 9791.03 3685.72C9791.03 3692.46 9793.38 3697.86 9798.21 3701.93C9802.92 3705.89 9809.15 3707.77 9816.84 3707.77C9827.68 3707.77 9836.09 3705.01 9842.11 3699.57C9848.26 3694.2 9851.24 3686.13 9851.24 3675.29V3661.55Z" fill="#231916"/>
<path d="M10033.3 3735.85C10018 3735.85 10006.5 3732.36 9998.91 3725.59C9991.46 3718.61 9987.53 3706.82 9987.53 3689.89V3602.49H9969.68V3572.99H9987.53V3523.13H10024V3572.99H10053.8V3602.49H10024V3686.64C10024 3694.68 10025.9 3699.81 10028.9 3702.2C10032.2 3704.8 10036.1 3706.06 10041 3706.06H10053.8V3735.85H10033.3Z" fill="#231916"/>
<path d="M10144 3505.55H10181.2V3543.3H10144V3505.55ZM10144.6 3569.77H10181V3735.23H10144.6V3569.77Z" fill="#231916"/>
<path d="M10390.2 3717.45C10378.5 3731.06 10361.9 3737.83 10339.9 3737.83C10318 3737.83 10301.2 3731.06 10289.6 3717.45C10277.9 3703.98 10272 3682.16 10272 3652.41C10272 3637.75 10273.6 3625.03 10277 3614.15C10280.2 3603.55 10284.8 3594.9 10290.8 3588C10296.8 3580.99 10303.9 3575.99 10312.4 3572.64C10320.6 3569.16 10329.9 3567.58 10339.9 3567.58C10360 3567.58 10376.4 3574.32 10389 3587.65C10401.3 3600.99 10407.6 3622.5 10407.6 3652.41C10407.6 3682.16 10401.9 3703.98 10390.2 3717.45ZM10363.1 3612.17C10357.9 3603.62 10350.2 3599.38 10339.9 3599.38C10329.5 3599.38 10321.8 3603.55 10316.6 3612.03C10311.3 3620.34 10308.8 3633.95 10308.8 3652.41C10308.8 3669.51 10311.1 3682.57 10316.2 3691.94C10321 3701.38 10329 3706.06 10339.9 3706.06C10350.7 3706.06 10358.5 3701.45 10363.5 3692.22C10368.5 3682.91 10370.8 3669.51 10370.8 3652.41C10370.8 3634.12 10368.3 3620.48 10363.1 3612.17Z" fill="#231916"/>
<path d="M10592.7 3735.25V3634.41C10592.7 3624.74 10590 3616.67 10584.6 3609.9C10579.4 3603.02 10572.1 3599.64 10562.9 3599.64C10553.7 3599.64 10546.6 3602.96 10540.9 3609.73C10535.4 3616.46 10532.6 3624.67 10532.6 3634.41V3735.25H10496.2V3602.51C10496.2 3598 10496 3592.63 10495.5 3586.85C10495.1 3581.11 10494.4 3575.23 10493.5 3569.58H10531.6C10532.1 3572.63 10532.5 3576.29 10532.9 3580.39C10533.1 3584.42 10533.2 3588.25 10533.2 3591.91V3591.37C10538.3 3583.09 10545.1 3577.21 10553.6 3573.48C10562 3569.79 10569.2 3567.81 10575.2 3567.81C10591.4 3567.81 10604.4 3573.35 10614.2 3584.36C10624.2 3595.4 10629.1 3610.1 10629.1 3628.64V3735.25H10592.7Z" fill="#231916"/>
<path d="M1246.65 3475.9H1087.23C1174.92 3627.88 1310.02 3749.19 1472.41 3819.73C1370.37 3727.13 1291.86 3609.22 1246.65 3475.9Z" fill="#231916"/>
<path d="M2353.04 2458.17C2453.43 2549.29 2530.89 2664.94 2576.61 2795.48H2734.6C2646.64 2646.6 2513.11 2527.72 2353.04 2458.17Z" fill="#231916"/>
<path d="M2512.6 3474.45C2370.79 3721.04 2105 3887.33 1800.19 3887.33C1683.66 3887.33 1572.83 3862.81 1472.41 3819.05C1618.37 3952 1812.36 4033 2025.23 4033C2386.93 4033 2693.67 3799.15 2803.51 3474.45H2512.6Z" fill="url(#paint0_radial_6_3449)"/>
<path d="M1807.17 3072.3H1496.07V2870.19H1375.21V3397.55H1496.07V3195.41H1807.17V3397.55H1927.96V2870.19H1807.17V3072.3Z" fill="#231916"/>
<path d="M2859.1 2921.05C2851.15 2907.2 2840.58 2894.99 2827.76 2884.82C2797.99 2861.44 2766.79 2863.14 2737.46 2885.67C2724.11 2896.25 2713.61 2908.26 2706.13 2920.98L2493.79 3274.57H2099.49V3195.6H2482.95V3072.61H2099.49V2993.72H2511.09V2870.73H2052.49C2021.9 2870.73 1978.74 2882.77 1978.74 2940.58V3334.55C1978.74 3362.61 1994.1 3397.55 2052.28 3397.55H2419.94H2530.19H2551.53L2780.29 3021.34L2859.98 3153.31H2859.68L2921.7 3256.23H2921.84L3006.77 3397.55H3137.92L2859.1 2921.05Z" fill="#231916"/>
<path d="M2778.52 3252.48C2738.61 3252.48 2706.31 3285.02 2706.31 3325C2706.31 3365.02 2738.61 3397.55 2778.52 3397.55C2818.4 3397.55 2850.66 3365.02 2850.66 3325C2850.66 3285.02 2818.4 3252.48 2778.52 3252.48Z" fill="#231916"/>
<path d="M839.787 2894.95C857.984 2907.84 884.787 2909.09 904.821 2899.43C908.053 2897.93 909.924 2903.12 906.76 2904.62C885.91 2914.69 859.379 2913.16 839.754 2901.5C820.842 2890.2 810.059 2872.33 802.576 2852.69L801.42 3390.15C808.937 3370.71 819.685 3353.11 838.393 3341.41C857.883 3329.27 885.298 3328.29 906.012 3338.43C909.243 3339.99 906.896 3345.01 903.597 3343.38C883.801 3333.75 858.562 3335.31 840.093 3346.94C821.726 3358.5 811.727 3376.65 804.72 3396.39L877.849 3391.94C877.849 3391.94 896.828 3393.03 903.903 3374.04L911.522 3342.19C911.522 3342.19 915.195 3330.25 915.195 3321.1L915.501 3196.59H955.025H969.447C998.324 3197.14 1025.43 3190.25 1049.45 3180.38L1213.66 3396.83H1378.83L1156.73 3104.61L1375.33 2871.62H1210.19L1091.28 2999.38C1089.21 3001.34 1087.07 3003.55 1084.86 3005.82C1028.22 3064.56 975.603 3073.07 955.773 3073.99H955.365H915.739L916.08 2925.03C916.08 2925.03 916.114 2906.31 912.44 2894.24L903.257 2859.71C903.257 2859.71 899.923 2847.4 884.413 2847.4L805.4 2844.08C812.168 2863.82 821.828 2882.16 839.787 2894.95Z" fill="url(#paint1_radial_6_3449)"/>
<path d="M734.61 2785.33V2794.16L747.294 2804.12H748.1L736.422 2842.85C726.489 2842.85 719.107 2846.18 719.073 2857.19L718 3380.55C718 3381.03 718.201 3396.73 734.61 3396.73H755.448V2842.75V2833.85C755.448 2830.35 758.3 2827.46 761.79 2827.46C765.28 2827.46 768.098 2830.35 768.098 2833.85L768.066 2842.79L768.032 2844.79C768.032 2845.37 767.931 2845.88 767.763 2846.39H768.032L766.857 3396.76L790.783 3396.83L791.99 2842.85H791.688H781.622L773.904 2804.15L786.789 2793.21V2785.09C786.789 2785.09 775.414 2781.73 762.126 2781.73C762.126 2781.73 761.387 2781.69 760.146 2781.69C755.079 2781.69 741.757 2782.03 734.61 2785.33Z" fill="url(#paint2_radial_6_3449)"/>
<path d="M1020.49 2793.17H1313.02C1455.9 2550.5 1719.61 2387.64 2021.48 2387.64C2138.02 2387.64 2248.86 2412.04 2349.22 2455.78C2203.31 2322.89 2009.32 2242 1796.42 2242C1437.41 2242 1132.41 2472.26 1020.49 2793.17Z" fill="url(#paint3_radial_6_3449)"/>
<defs>
<radialGradient id="paint0_radial_6_3449" cx="0" cy="0" r="1" gradientUnits="userSpaceOnUse" gradientTransform="translate(1606.25 3878.31) scale(788.339 788.801)">
<stop stop-color="#A8CC09"/>
<stop offset="0.182266" stop-color="#A8CC09"/>
<stop offset="0.182685" stop-color="#A8CC09"/>
<stop offset="0.507389" stop-color="#00A1E9"/>
<stop offset="0.507755" stop-color="#00A1E9"/>
<stop offset="0.743842" stop-color="#004098"/>
<stop offset="0.743952" stop-color="#004098"/>
<stop offset="1" stop-color="#00286E"/>
</radialGradient>
<radialGradient id="paint1_radial_6_3449" cx="0" cy="0" r="1" gradientUnits="userSpaceOnUse" gradientTransform="translate(854.606 2818.68) scale(245.54 244.831)">
<stop stop-color="#595757"/>
<stop offset="1" stop-color="#231916"/>
</radialGradient>
<radialGradient id="paint2_radial_6_3449" cx="0" cy="0" r="1" gradientUnits="userSpaceOnUse" gradientTransform="translate(907.545 2856.63) scale(215.525 1791.72)">
<stop stop-color="#595757"/>
<stop offset="1" stop-color="#231916"/>
</radialGradient>
<radialGradient id="paint3_radial_6_3449" cx="0" cy="0" r="1" gradientUnits="userSpaceOnUse" gradientTransform="translate(2006.6 2291.82) scale(856.753 856.753)">
<stop stop-color="#FDCD00"/>
<stop offset="0.64532" stop-color="#E60013"/>
<stop offset="1" stop-color="#601986"/>
</radialGradient>
</defs>
</svg>
