<svg width="64" height="26" viewBox="0 0 64 26" fill="none" xmlns="http://www.w3.org/2000/svg">
<path fill-rule="evenodd" clip-rule="evenodd" d="M38.9396 15.2768C38.9198 15.2919 38.9005 15.3072 38.8812 15.3224L38.881 15.3225C38.8457 15.3503 38.8107 15.3779 38.7743 15.4039C37.737 16.1698 36.5398 16.6908 35.2725 16.9283C34.0052 17.1657 32.7007 17.1133 31.4565 16.7748C31.4178 16.7652 31.3821 16.7542 31.3458 16.743L31.3388 16.7408C31.3301 16.7379 31.3213 16.7357 31.3127 16.7334L31.3127 16.7334C31.3046 16.7313 31.2967 16.7293 31.289 16.7268C31.2579 16.7175 31.2275 16.7081 31.1969 16.6986C31.173 16.6912 31.1488 16.6837 31.1242 16.6762L31.124 16.6731L31.1229 16.6768L31.1238 16.6771C31.124 16.6843 31.1249 16.6917 31.1258 16.6993L31.1271 16.7112C31.1277 16.7165 31.128 16.7219 31.128 16.7273L31.1302 16.7758C31.1318 16.8202 31.1351 16.8641 31.1383 16.9082L31.1384 16.9082C31.143 16.9697 31.1476 17.0314 31.1476 17.0946V25.8151C29.4868 25.5762 28.3097 25.1086 27.4753 24.3847C26.0174 25.4006 24.2316 26.0059 22.2966 26.0059C18.17 26.0059 14.7039 23.2773 13.7296 19.6043L13.7334 19.6015L13.7279 19.6043C12.1904 20.7333 10.2792 21.4125 8.1989 21.4125H0V3.89514H8.1989C12.2992 3.89514 15.7674 6.51064 16.9126 10.0906C16.9363 10.1655 16.9814 10.3167 16.9814 10.3167L16.9833 10.3166C18.4648 9.24427 20.302 8.59861 22.2966 8.59861C23.206 8.59839 24.1103 8.73392 24.9797 9.00074C25.0039 9.00799 25.0278 9.01588 25.0519 9.02382L25.0521 9.02389C25.0674 9.02894 25.0828 9.034 25.0983 9.03893C25.11 9.04404 25.1242 9.04821 25.138 9.05226L25.1447 9.05423C25.1818 9.06626 25.2174 9.07919 25.2529 9.09209C25.2713 9.09879 25.2897 9.10549 25.3083 9.11204L25.3125 9.11243L25.3074 9.11066L25.3065 9.05457V0H30.8686V9.02908C30.8686 10.522 32.1311 11.7334 33.6865 11.7334C35.2402 11.7334 36.5052 10.522 36.5052 9.02908V0H42.0652L42.0644 5.59594C42.0965 5.5741 42.1275 5.55164 42.1585 5.52922C42.1787 5.51457 42.199 5.49993 42.2194 5.48548C43.5128 4.61913 45.0351 4.15771 46.5918 4.16009C48.3631 4.1558 50.0832 4.75338 51.4704 5.85488C52.8581 4.75329 54.5789 4.15572 56.3507 4.16009C60.5696 4.16009 64 7.45655 64 11.5054V21.414H58.4582V11.5054C58.4582 10.39 57.5116 9.4859 56.3507 9.4859C55.1873 9.4859 54.2428 10.39 54.2428 11.5054V21.414H48.6989V11.5054C48.6989 10.39 47.7527 9.4859 46.5914 9.4859C45.4288 9.4859 44.4838 10.39 44.4838 11.5054V21.414H38.9396V15.2768ZM5.56214 16.0724H8.1989C10.1619 16.0724 11.7615 14.539 11.7615 12.6556C11.7615 10.7686 10.1619 9.23452 8.1989 9.23452H5.56214V16.0724ZM22.2966 20.667C24.1096 20.667 25.5859 19.2514 25.5859 17.5112V17.0946C25.5859 15.3556 24.1096 13.9388 22.2966 13.9388C20.4828 13.9388 19.0074 15.3556 19.0074 17.0946V17.5112C19.0074 19.2514 20.4828 20.667 22.2966 20.667Z" fill="white"/>
</svg>
