<svg width="87" height="35" viewBox="0 0 87 35" fill="none" xmlns="http://www.w3.org/2000/svg">
<path d="M18.4757 26.3849C21.7337 24.7138 23.7355 20.9797 23.6159 16.9894C23.5856 15.974 23.5576 14.8607 23.3041 13.9213C23.2852 13.8515 22.8545 13.8852 22.8545 13.8852C22.8545 13.8852 22.7938 13.6816 22.7618 13.5809C21.2206 8.76275 16.5529 5.24268 11.0345 5.24268H0V28.8185H11.0345C13.8343 28.8185 16.4064 27.9043 18.4757 26.3849ZM11.0345 21.6314H7.48581V12.4287H11.0345C13.6764 12.4287 15.8292 14.4934 15.8292 17.0329C15.8292 19.5678 13.6764 21.6314 11.0345 21.6314Z" fill="#608DF9"/>
<path d="M41.8868 22.4448C43.1941 18.0957 38.4617 12.6735 34.0612 12.2638V12.2633C33.988 12.2375 33.917 12.2106 33.841 12.186C33.8198 12.1797 33.7969 12.1734 33.7786 12.1654C33.7248 12.1483 33.6722 12.13 33.619 12.114C32.4489 11.7549 31.2318 11.5725 30.0079 11.5728C27.3226 11.5728 24.8494 12.4423 22.8551 13.8863C23.1551 14.9085 23.3088 15.968 23.3116 17.0334C23.3116 20.8441 21.4106 24.2297 18.478 26.3848C19.7893 31.3282 24.4541 35.0004 30.0079 35.0004C32.6121 35.0004 35.0155 34.1858 36.9777 32.8185C38.1007 33.7928 39.6849 34.4221 41.92 34.7436V23.0071C41.92 22.8612 41.9017 22.7211 41.8966 22.5781L41.8937 22.5128C41.8937 22.4894 41.8886 22.4665 41.888 22.4453L41.8868 22.4448ZM34.4348 23.5678C34.4348 25.9099 32.4479 27.815 30.0079 27.815C27.5668 27.815 25.5811 25.9099 25.5811 23.5678V23.0071C25.5811 20.6667 27.5668 18.7599 30.0079 18.7599C32.4479 18.7599 34.4348 20.6667 34.4348 23.0071V23.5678Z" fill="#ABC600"/>
<path d="M56.3618 7.82276C56.3646 7.82219 56.3589 7.8239 56.3618 7.82276C56.3652 7.81933 56.3566 7.82562 56.3618 7.82276C56.411 7.78729 56.566 7.72494 56.6124 7.68833L56.6135 0H49.1306V12.1518C49.1306 14.161 47.428 15.7914 45.337 15.7914C43.2437 15.7914 41.5446 14.161 41.5446 12.1518V0H34.0588V12.1861L34.06 12.2616C38.4599 13.7971 41.6488 17.7503 41.8885 22.4437C41.964 22.4666 42.0355 22.4894 42.1104 22.5118C42.1316 22.5186 42.1545 22.5232 42.1774 22.5306C42.2294 22.5467 42.2803 22.5627 42.3358 22.5764C44.0103 23.0319 45.766 23.1025 47.4716 22.783C49.1772 22.4634 50.7884 21.7621 52.1844 20.7314C52.2605 20.6771 52.332 20.6176 52.4075 20.5598C53.5917 18.8681 52.6569 17.1787 52.6913 15.4842C52.7599 12.1071 53.915 10.765 56.3618 7.82276Z" fill="#FBB900"/>
<path d="M56.6123 7.53348C56.566 7.56895 56.515 7.60155 56.4681 7.63702C56.4632 7.63916 56.4589 7.6425 56.4555 7.64675C56.4527 7.64675 56.4498 7.65075 56.4481 7.65247C53.995 9.46028 52.4069 12.2973 52.4069 15.4861V28.8198H59.8686V15.4844C59.8686 13.9832 61.1404 12.7664 62.7051 12.7664C64.268 12.7664 65.5415 13.9832 65.5415 15.4844V28.8198H73.0027V15.4844C73.0027 13.9832 74.2739 12.7664 75.8397 12.7664C77.4021 12.7664 78.6761 13.9832 78.6761 15.4844V28.8198H86.1345V15.4844C86.1345 10.0352 81.5177 5.59866 75.8397 5.59866C73.4551 5.59277 71.1392 6.39701 69.2715 7.87959C67.4046 6.39713 65.0895 5.59288 62.7056 5.59866C60.6105 5.59545 58.5618 6.21645 56.8211 7.38244C56.7513 7.43164 56.6838 7.48256 56.6123 7.53119V7.53348ZM52.5527 20.4444L52.535 20.4593C52.5414 20.4547 52.5469 20.4497 52.5527 20.4444Z" fill="#EF685E"/>
</svg>
