<svg width="50" height="19" viewBox="0 0 50 19" fill="none" xmlns="http://www.w3.org/2000/svg">
<path d="M4.7922 0.0692524C4.68618 0.111661 4.49534 0.260092 4.36811 0.387319C4.17727 0.599363 4.15606 0.790203 4.13486 2.38053L4.11366 4.1405L2.35369 4.1617L0.572519 4.18291L0.296862 4.47977L0 4.75543V9.35679V13.9581L0.296862 14.2338L0.572519 14.5307L2.35369 14.5519L4.11366 14.5731L4.13486 16.333L4.15606 18.1142L4.45293 18.3899L4.72858 18.6867H25H45.2714L45.5471 18.3899L45.8439 18.1142L45.8651 16.333L45.8863 14.5731L47.6463 14.5519L49.4275 14.5307L49.7031 14.2338L50 13.9581V9.35679V4.75543L49.7031 4.47977L49.4275 4.18291L47.6463 4.1617L45.8863 4.1405L45.8651 2.38053L45.8439 0.599363L45.5471 0.323706L45.2714 0.0268443L25.1272 0.00564017C14.0585 -0.0155642 4.89822 0.0268436 4.7922 0.0692524ZM43.8083 3.10148V4.1405H25H6.19169V3.10148V2.06247H25H43.8083V3.10148ZM7.88804 7.29996C8.33333 7.512 8.75742 8.10573 8.86344 8.61463C8.94826 9.08113 8.67261 9.80208 8.22731 10.1838C7.44275 10.8835 6.19169 10.8835 5.40712 10.1838C3.66836 8.67824 5.74639 6.21853 7.88804 7.29996ZM13.7829 7.17273C14.4402 7.42718 14.9703 8.19054 14.9703 8.89029C14.9703 9.82328 13.9525 10.7139 12.8923 10.7139C12.2774 10.7139 11.4292 10.2262 11.1323 9.71726C10.2417 8.16934 11.9805 6.51539 13.7829 7.17273ZM19.9746 7.23634C20.6531 7.512 21.056 8.14813 21.056 8.91149C21.056 9.46281 20.8227 9.9081 20.3774 10.2474C19.4232 10.9471 18.3206 10.8835 17.5148 10.0777C17.0059 9.56883 16.8575 9.05992 17.0483 8.445C17.4088 7.23634 18.6811 6.70623 19.9746 7.23634ZM26.1026 7.25755C26.5479 7.46959 26.7812 7.70284 26.9932 8.12693C27.7142 9.54762 26.1026 11.138 24.4699 10.6078C23.4521 10.2686 22.9008 9.37799 23.134 8.4662C23.4521 7.27875 24.9364 6.66383 26.1026 7.25755ZM32.1035 7.19394C32.2519 7.23635 32.5064 7.40598 32.6548 7.57561C33.609 8.4874 33.3969 9.80208 32.2095 10.4382C31.7218 10.6927 31.5522 10.7351 31.0857 10.6927C29.2621 10.5018 28.5199 8.59343 29.8558 7.512C30.4707 7.0031 31.2977 6.89707 32.1035 7.19394ZM38.4436 7.34237C39.0161 7.68164 39.3554 8.21175 39.3554 8.84788C39.3554 10.523 37.0865 11.35 35.8567 10.1201C34.2239 8.48741 36.3868 6.15492 38.4436 7.34237ZM44.402 7.25755C45.5683 7.78766 45.8227 9.16594 44.9109 10.0777C43.6811 11.3288 41.5606 10.6927 41.4122 9.03872C41.3062 7.53321 42.9177 6.57901 44.402 7.25755ZM43.8083 15.6333V16.6723H25H6.19169V15.6333V14.5943H25H43.8083V15.6333Z" fill="#353535"/>
</svg>
