<svg width="2000" height="2000" viewBox="0 0 2000 2000" fill="none" xmlns="http://www.w3.org/2000/svg">
<rect width="2000" height="2000" fill="white"/>
<path d="M479.161 1194.29H356.103C423.789 1311.6 528.074 1405.23 653.415 1459.69C574.65 1388.21 514.054 1297.2 479.161 1194.29Z" fill="#231916"/>
<path d="M1333.15 408.735C1410.63 479.069 1470.42 568.338 1505.71 669.093H1627.66C1559.77 554.177 1456.7 462.417 1333.15 408.735Z" fill="#231916"/>
<path d="M1456.31 1193.17C1346.85 1383.51 1141.69 1511.86 906.419 1511.86C816.471 1511.86 730.93 1492.93 653.416 1459.16C766.08 1561.78 915.809 1624.3 1080.12 1624.3C1359.31 1624.3 1596.07 1443.8 1680.85 1193.17H1456.31Z" fill="url(#paint0_radial_6_2249)"/>
<path d="M911.803 882.767H671.677V726.764H578.387V1133.82H671.677V977.789H911.803V1133.82H1005.04V726.764H911.803V882.767Z" fill="#231916"/>
<path d="M1723.76 766.018C1717.62 755.33 1709.46 745.902 1699.57 738.05C1676.59 720.01 1652.51 721.323 1629.87 738.707C1619.56 746.874 1611.46 756.144 1605.69 765.965L1441.79 1038.89H1137.44V977.938H1433.42V883.007H1137.44V822.109H1455.14V727.179H1101.16C1077.55 727.179 1044.23 736.475 1044.23 781.091V1085.18C1044.23 1106.85 1056.09 1133.82 1101 1133.82H1384.78H1469.88H1486.35L1662.93 843.433L1724.44 945.296H1724.2L1772.08 1024.73H1772.18L1837.74 1133.82H1938.97L1723.76 766.018Z" fill="#231916"/>
<path d="M1661.56 1021.84C1630.75 1021.84 1605.82 1046.95 1605.82 1077.81C1605.82 1108.7 1630.75 1133.82 1661.56 1133.82C1692.34 1133.82 1717.25 1108.7 1717.25 1077.81C1717.25 1046.95 1692.34 1021.84 1661.56 1021.84Z" fill="#231916"/>
<path d="M165.113 745.874C179.158 755.822 199.847 756.79 215.311 749.33C217.805 748.178 219.249 752.183 216.807 753.335C200.714 761.11 180.236 759.932 165.087 750.927C150.49 742.209 142.167 728.413 136.391 713.256L135.498 1128.1C141.3 1113.1 149.597 1099.52 164.037 1090.48C179.08 1081.11 200.241 1080.35 216.23 1088.18C218.724 1089.38 216.912 1093.26 214.365 1092C199.085 1084.57 179.605 1085.77 165.349 1094.75C151.172 1103.68 143.454 1117.68 138.045 1132.92L194.491 1129.49C194.491 1129.49 209.141 1130.33 214.602 1115.67L220.483 1091.09C220.483 1091.09 223.318 1081.87 223.318 1074.8L223.554 978.703H254.061H265.193C287.483 979.122 308.407 973.808 326.942 966.19L453.697 1133.26H581.187L409.748 907.708L578.483 727.864H451.019L359.235 826.477C357.634 827.995 355.98 829.697 354.273 831.451C310.56 876.791 269.945 883.362 254.639 884.069H254.324H223.738L224.001 769.094C224.001 769.094 224.027 754.644 221.192 745.324L214.103 718.675C214.103 718.675 211.53 709.172 199.558 709.172L138.57 706.607C143.795 721.843 151.25 736.005 165.113 745.874Z" fill="url(#paint1_radial_6_2249)"/>
<path d="M83.9294 661.261V668.08L93.7197 675.764H94.3417L85.3277 705.662C77.661 705.662 71.9629 708.233 71.937 716.73L71.1086 1120.7C71.1086 1121.06 71.2639 1133.18 83.9294 1133.18H100.014V705.584V698.712C100.014 696.011 102.215 693.782 104.909 693.782C107.603 693.782 109.778 696.011 109.778 698.712L109.753 705.61L109.727 707.157C109.727 707.603 109.649 707.997 109.52 708.39H109.727L108.82 1133.21L127.288 1133.26L128.22 705.662H127.986H120.216L114.259 675.79L124.205 667.345V661.077C124.205 661.077 115.425 658.481 105.168 658.481C105.168 658.481 104.598 658.455 103.64 658.455C99.7285 658.455 89.4463 658.717 83.9294 661.261Z" fill="url(#paint2_radial_6_2249)"/>
<path d="M304.591 667.314H530.385C640.672 480.005 844.219 354.293 1077.23 354.293C1167.18 354.293 1252.73 373.129 1330.2 406.891C1217.58 304.317 1067.84 241.881 903.508 241.881C626.401 241.881 390.979 419.615 304.591 667.314Z" fill="url(#paint3_radial_6_2249)"/>
<defs>
<radialGradient id="paint0_radial_6_2249" cx="0" cy="0" r="1" gradientUnits="userSpaceOnUse" gradientTransform="translate(756.725 1504.9) scale(608.495 608.851)">
<stop stop-color="#A8CC09"/>
<stop offset="0.182266" stop-color="#A8CC09"/>
<stop offset="0.182685" stop-color="#A8CC09"/>
<stop offset="0.507389" stop-color="#00A1E9"/>
<stop offset="0.507755" stop-color="#00A1E9"/>
<stop offset="0.743842" stop-color="#004098"/>
<stop offset="0.743952" stop-color="#004098"/>
<stop offset="1" stop-color="#00286E"/>
</radialGradient>
<radialGradient id="paint1_radial_6_2249" cx="0" cy="0" r="1" gradientUnits="userSpaceOnUse" gradientTransform="translate(176.551 687.001) scale(189.525 188.977)">
<stop stop-color="#595757"/>
<stop offset="1" stop-color="#231916"/>
</radialGradient>
<radialGradient id="paint2_radial_6_2249" cx="0" cy="0" r="1" gradientUnits="userSpaceOnUse" gradientTransform="translate(217.412 716.297) scale(166.357 1382.97)">
<stop stop-color="#595757"/>
<stop offset="1" stop-color="#231916"/>
</radialGradient>
<radialGradient id="paint3_radial_6_2249" cx="0" cy="0" r="1" gradientUnits="userSpaceOnUse" gradientTransform="translate(1065.74 280.339) scale(661.302 661.302)">
<stop stop-color="#FDCD00"/>
<stop offset="0.64532" stop-color="#E60013"/>
<stop offset="1" stop-color="#601986"/>
</radialGradient>
</defs>
</svg>
