<svg width="80" height="16" viewBox="0 0 80 16" fill="none" xmlns="http://www.w3.org/2000/svg">
<path d="M23.0291 8.2083e-05L17.0084 15.4839H22.126L22.8532 13.4346H28.6238L29.3509 15.4839H34.4684L28.4478 8.2083e-05H23.0291ZM24.0223 9.71549L25.7384 4.87859L27.4547 9.71549H24.0223ZM55.7668 9.60164H62.7657V5.88246H55.7668V3.79518H62.841V8.2083e-05H50.8748V15.4839H62.9916V11.6889H55.7668V9.60164ZM40.5644 10.1811L36.9521 8.2083e-05H31.8344L37.8551 15.4839H43.2737L49.2945 8.2083e-05H44.177L40.5644 10.1811ZM10.461 8.28724L4.74133 8.2083e-05H0V15.4839H4.9671V7.19686L10.6868 15.4839H15.4281V8.2083e-05H10.461V8.28724ZM76.1184 10.1721L76.5842 9.97552C78.3683 9.22233 79.2758 7.59258 79.2758 5.52417C79.2758 3.5683 78.5685 2.12127 77.1733 1.22344C75.8766 0.388826 74.1947 0 71.8807 0H65.3997V15.4839H70.2164V11.1574H71.9473L74.8825 15.4839H80L76.1184 10.1721ZM72.7752 7.21073H70.1411V3.94695H72.7752C73.6688 3.94695 74.3932 4.67757 74.3932 5.57876C74.3932 6.48011 73.6687 7.21073 72.7752 7.21073Z" fill="white"/>
</svg>
