<svg width="1176" height="213" viewBox="0 0 1176 213" fill="none" xmlns="http://www.w3.org/2000/svg">
<path d="M318.926 58.6989C314.99 62.9346 313.026 67.9518 313.026 73.7385C313.026 80.2703 315.578 85.8463 320.7 90.5072C325.815 95.1317 331.962 97.448 339.137 97.448C346.309 97.448 352.456 95.1317 357.578 90.5072C362.693 85.8463 365.248 80.2703 365.248 73.7385C365.248 67.9518 363.3 62.9346 359.409 58.6989C355.509 54.451 350.662 51.6893 344.859 50.4906H367.771V40.1686H345.564V33.0821H332.727V40.1686H310.277V50.4906H333.642C327.77 51.6893 322.871 54.451 318.926 58.6989ZM329.743 64.445C332.338 61.8655 335.477 60.5657 339.137 60.5657C342.802 60.5657 345.932 61.8655 348.524 64.445C351.124 67.0529 352.423 70.179 352.423 73.8559C352.423 77.5085 351.124 80.6469 348.524 83.2344C345.932 85.8382 342.802 87.1341 339.137 87.1341C335.477 87.1341 332.338 85.8382 329.743 83.2344C327.143 80.6469 325.847 77.5085 325.847 73.8559C325.847 70.179 327.143 67.0529 329.743 64.445Z" fill="white"/>
<path d="M374.576 35.1166V128.136H330.579V101.795H317.746V138.446H387.393V129.542V45.4387H397.706V35.1166H387.393H374.576Z" fill="white"/>
<path d="M474.796 35.1166H405.154V45.4387H461.959V71.7965H400.12V82.0821H434.933V99.9604H404.931V110.266H461.959V138.446H474.796V99.9604H447.766V82.0821H482.583V71.7965H474.796V35.1166Z" fill="white"/>
<path d="M577.331 35.1166H567.034H554.193V138.446H567.034V45.4387H577.331V35.1166Z" fill="white"/>
<path d="M526.943 33.0833H514.118V42.4659H491.664V52.7798H549.397V42.4659H526.943V33.0833Z" fill="white"/>
<path d="M538.913 61.8027C533.92 57.3199 527.874 55.0603 520.751 55.0603C513.64 55.0603 507.591 57.3199 502.602 61.8027C497.592 66.2975 495.102 71.8453 495.102 78.4337C495.102 84.8804 497.592 90.4079 502.602 95.0648C507.591 99.7095 513.64 102.022 520.751 102.022C527.874 102.022 533.92 99.7095 538.913 95.0648C543.918 90.4079 546.412 84.8804 546.412 78.4337C546.412 71.8453 543.918 66.2975 538.913 61.8027ZM529.854 87.796C527.368 90.4079 524.327 91.7159 520.751 91.7159C517.18 91.7159 514.147 90.4079 511.656 87.796C509.174 85.1922 507.935 82.0742 507.935 78.4216C507.935 74.7892 509.174 71.7157 511.656 69.1645C514.147 66.6336 517.18 65.3702 520.751 65.3702C524.327 65.3702 527.368 66.6336 529.854 69.1645C532.337 71.7157 533.58 74.7892 533.58 78.4216C533.58 82.0742 532.337 85.1922 529.854 87.796Z" fill="white"/>
<path d="M625.22 90.1021H652.234V35.1187H585.354V90.1021H612.388V115.075H577.332V125.381H659.807V115.075H625.22V90.1021ZM598.186 45.4408H639.402V79.8044H598.186V45.4408Z" fill="white"/>
<path d="M727.815 89.201H678.801V35.1247H665.964V99.5109H727.815V138.446H740.64V35.1247H727.815V89.201Z" fill="white"/>
<path d="M751.349 45.4385H787.551V66.0542H751.515V76.3722H787.551V99.2839H800.355V35.1205H751.349V45.4385Z" fill="white"/>
<path d="M812.96 35.1166V138.446H825.785V45.4387H836.09V35.1166H825.785H812.96Z" fill="white"/>
<path d="M905.188 100.878H918.02V35.1195H845.171V45.4415H905.188V100.878Z" fill="white"/>
<path d="M893.814 71.3211H880.99V114.841H868.145V71.3211H855.332V114.841H840.131V125.15H923.059V114.841H893.814V71.3211Z" fill="white"/>
<path d="M926.13 94.6977H945.155V102.477H933.926V112.799H987.99V138.217H1000.81V102.477H990.043V94.6977H1008.61V84.3878H926.13V94.6977ZM957.967 94.6977H977.21V102.477H957.967V94.6977Z" fill="white"/>
<path d="M948.161 72.7966C953.531 77.6195 959.97 80.033 967.485 80.033C975.135 80.033 981.638 77.6195 986.915 72.7966C992.223 67.9859 994.856 62.1871 994.856 55.4123C994.856 48.6376 992.223 42.8388 986.915 38.0119C981.638 33.189 975.135 30.7917 967.485 30.7917C959.97 30.7917 953.531 33.189 948.161 38.0119C942.8 42.8388 940.115 48.6376 940.115 55.4123C940.115 62.1871 942.8 67.9859 948.161 72.7966ZM957.232 45.3211C960.083 42.4906 963.464 41.0773 967.38 41.0773C971.434 41.0773 974.888 42.4906 977.747 45.3211C980.61 48.1436 982.031 51.5006 982.031 55.4123C982.031 59.316 980.61 62.6892 977.747 65.4955C974.888 68.322 971.434 69.7231 967.38 69.7231C963.464 69.7231 960.083 68.322 957.232 65.4955C954.369 62.6892 952.952 59.316 952.952 55.4123C952.952 51.5006 954.369 48.1436 957.232 45.3211Z" fill="white"/>
<path d="M1073.88 54.6136H1061.06V61.9309C1059.98 59.4972 1058.54 57.3186 1056.71 55.4113C1054.87 53.5 1052.65 51.941 1050.07 50.718H1066.34V40.4122H1044.11V32.6049H1031.3V40.4122H1008.61V50.718H1025.87C1021.96 52.6901 1018.83 55.3506 1016.47 58.6833C1014.13 62.0241 1012.96 65.8184 1012.96 70.0744C1012.96 76.1607 1015.36 81.3926 1020.2 85.7984C1025.01 90.2042 1030.88 92.403 1037.79 92.403C1043 92.403 1047.72 91.1396 1051.94 88.6249C1056.15 86.094 1059.17 82.7856 1061.02 78.6551V85.523H1073.88V94.4642V95.2538V103.393H1030.13V94.4642H1017.3V138.445H1086.72V95.2538V94.4642V35.1196H1073.88V54.6136ZM1046.37 78.6551C1044.05 80.9512 1041.28 82.081 1038.05 82.081C1034.64 82.081 1031.76 80.9512 1029.37 78.6551C1026.96 76.3713 1025.79 73.5407 1025.79 70.1797C1025.79 66.9725 1026.96 64.1946 1029.37 61.8257C1031.76 59.4486 1034.64 58.2622 1038.05 58.2622C1041.28 58.2622 1044.05 59.4486 1046.37 61.8257C1048.67 64.1946 1049.83 66.9725 1049.83 70.1797C1049.83 73.5407 1048.67 76.3713 1046.37 78.6551ZM1073.88 128.135H1030.13V113.711H1073.88V128.135ZM1062.21 75.2212C1062.35 74.464 1062.47 73.6176 1062.55 72.6944C1062.63 71.7954 1062.67 70.945 1062.67 70.1797C1062.67 69.2604 1062.63 68.3534 1062.55 67.4341C1062.47 66.5109 1062.26 65.6807 1061.97 64.9235H1073.88V75.2212H1062.21Z" fill="white"/>
<path d="M1155.85 40.4129H1133.63V32.8445H1120.8V40.4129H1098.34V50.7147H1155.85V40.4129Z" fill="white"/>
<path d="M1163.17 35.1179V102.258H1133.63V96.0741C1138.96 94.8391 1143.34 92.1624 1146.8 88.0481C1150.23 83.9177 1151.95 79.2649 1151.95 74.0816C1151.95 67.8171 1149.58 62.4799 1144.81 58.0377C1140.06 53.6157 1134.23 51.4047 1127.32 51.4047C1120.58 51.4047 1114.77 53.6157 1109.95 58.0377C1105.11 62.4799 1102.71 67.8171 1102.71 74.0816C1102.71 79.2649 1104.41 83.8853 1107.86 87.9388C1111.29 91.9761 1115.6 94.6244 1120.8 95.8433V102.258H1096.28V112.559H1163.17V138.448H1176V35.1179H1163.17ZM1119.05 81.8606C1116.69 79.5686 1115.53 76.8231 1115.53 73.624C1115.53 70.2589 1116.69 67.4324 1119.05 65.1404C1121.39 62.8565 1124.14 61.7065 1127.32 61.7065C1130.63 61.7065 1133.44 62.8565 1135.72 65.1404C1137.98 67.4324 1139.13 70.2589 1139.13 73.624C1139.13 76.8231 1137.98 79.5686 1135.72 81.8606C1133.44 84.1566 1130.63 85.2986 1127.32 85.2986C1124.14 85.2986 1121.39 84.1566 1119.05 81.8606Z" fill="white"/>
<path d="M329.4 176.845L322.107 167.208V176.845H317.746V149.823H322.107V165.138L328.655 157.25H334.109L326.375 166.195L334.721 176.845H329.4Z" fill="white"/>
<path d="M357.113 174.737C355.732 176.349 353.744 177.151 351.144 177.151C348.56 177.151 346.588 176.349 345.195 174.737C343.806 173.142 343.11 170.558 343.11 167.035C343.11 165.298 343.3 163.792 343.697 162.504C344.082 161.249 344.628 160.224 345.325 159.406C346.05 158.576 346.9 157.985 347.888 157.588C348.88 157.175 349.953 156.989 351.144 156.989C353.533 156.989 355.473 157.786 356.963 159.366C358.433 160.945 359.174 163.492 359.174 167.035C359.174 170.558 358.49 173.142 357.113 174.737ZM353.902 162.269C353.286 161.257 352.363 160.755 351.144 160.755C349.913 160.755 349.002 161.249 348.382 162.253C347.775 163.237 347.471 164.849 347.471 167.035C347.471 169.06 347.759 170.607 348.338 171.717C348.925 172.834 349.852 173.389 351.144 173.389C352.428 173.389 353.375 172.842 353.954 171.749C354.529 170.647 354.821 169.06 354.821 167.035C354.821 164.869 354.513 163.253 353.902 162.269Z" fill="white"/>
<path d="M376.298 157.761C377.185 157.267 378.113 157.012 379.085 157.012C379.635 157.012 380.279 157.178 380.996 157.486C381.721 157.793 382.235 158.105 382.522 158.421L381.089 162.317C380.822 162.102 380.465 161.863 380.024 161.567C379.562 161.288 378.999 161.126 378.311 161.126C377.598 161.126 376.983 161.288 376.448 161.608C375.914 161.912 375.476 162.349 375.116 162.875C374.768 163.361 374.513 163.936 374.339 164.609C374.164 165.277 374.079 165.953 374.079 166.625V176.846H369.73V161.369C369.73 160.693 369.706 159.988 369.674 159.255C369.641 158.534 369.601 157.846 369.528 157.222H373.946C373.99 157.635 374.035 158.081 374.063 158.571C374.096 159.081 374.108 159.539 374.108 159.927C374.691 159 375.428 158.279 376.298 157.761Z" fill="white"/>
<path d="M394.598 168.564C394.598 170.131 394.95 171.37 395.663 172.29C396.38 173.205 397.441 173.654 398.85 173.654C399.591 173.654 400.304 173.436 400.972 172.994C401.64 172.557 402.041 171.982 402.142 171.277H406.629C406.576 172.018 406.337 172.719 405.949 173.436C405.568 174.124 405.029 174.736 404.337 175.29C403.673 175.849 402.871 176.303 401.936 176.647C400.996 176.987 399.984 177.149 398.886 177.149C396.311 177.149 394.23 176.278 392.662 174.533C391.087 172.776 390.306 170.281 390.306 167.034C390.306 165.333 390.528 163.859 390.974 162.595C391.411 161.356 392.019 160.299 392.792 159.469C393.545 158.631 394.408 158.003 395.42 157.586C396.42 157.201 397.485 156.991 398.599 156.991C399.717 156.991 400.782 157.201 401.778 157.586C402.774 158.003 403.653 158.599 404.406 159.368C405.155 160.158 405.754 161.121 406.208 162.284C406.669 163.446 406.888 164.778 406.888 166.284V168.564H394.598ZM402.332 163.515C402.187 162.944 401.952 162.441 401.632 162.008C401.304 161.571 400.899 161.186 400.393 160.919C399.879 160.627 399.283 160.482 398.599 160.482C397.931 160.482 397.352 160.619 396.858 160.882C396.368 161.17 395.947 161.53 395.594 161.976C395.278 162.409 395.023 162.919 394.857 163.482C394.687 164.057 394.598 164.652 394.598 165.232H402.592C402.575 164.669 402.486 164.094 402.332 163.515Z" fill="white"/>
<path d="M427.444 176.884C427.38 176.654 427.323 176.35 427.282 175.969C427.23 175.605 427.21 175.269 427.21 174.953C426.497 175.763 425.687 176.334 424.752 176.646C423.836 176.961 423.01 177.135 422.281 177.135C420.127 177.135 418.519 176.556 417.475 175.451C416.418 174.337 415.891 172.888 415.891 171.106C415.891 170.345 416.017 169.583 416.288 168.838C416.572 168.101 416.964 167.413 417.499 166.842C418.07 166.275 418.738 165.805 419.532 165.437C420.321 165.068 421.265 164.902 422.342 164.902H427.21V164.121C427.21 163.052 426.938 162.165 426.408 161.484C425.869 160.796 425.015 160.444 423.861 160.444C422.998 160.444 422.245 160.731 421.581 161.25C420.921 161.78 420.564 162.416 420.5 163.157H416.248C416.272 162.27 416.487 161.428 416.916 160.67C417.345 159.901 417.908 159.253 418.604 158.723C419.285 158.176 420.07 157.739 420.937 157.447C421.795 157.147 422.682 156.99 423.597 156.99C424.889 156.99 426.031 157.18 427.003 157.524C427.979 157.893 428.817 158.37 429.497 158.998C430.17 159.605 430.672 160.314 431.02 161.136C431.36 161.974 431.538 162.873 431.538 163.809V173.43C431.538 174.038 431.551 174.588 431.579 175.058C431.615 175.536 431.717 176.135 431.879 176.884H427.444ZM427.21 168.117H423.091C422.176 168.117 421.451 168.409 420.909 168.939C420.358 169.474 420.083 170.166 420.083 170.98C420.083 171.778 420.37 172.418 420.937 172.9C421.508 173.37 422.245 173.592 423.14 173.592C424.432 173.592 425.436 173.264 426.14 172.62C426.857 171.985 427.21 171.029 427.21 169.745V168.117Z" fill="white"/>
<path d="M468.649 176.845V164.831C468.649 163.689 468.337 162.725 467.758 161.964C467.159 161.202 466.317 160.818 465.211 160.818C464.247 160.818 463.425 161.235 462.745 162.024C462.069 162.842 461.728 163.814 461.728 164.952V176.845H457.379V149.823H461.728V159.639C462.36 158.85 463.105 158.222 463.964 157.76C464.838 157.311 465.762 157.1 466.73 157.1C467.572 157.1 468.374 157.25 469.139 157.542C469.9 157.845 470.556 158.299 471.119 158.89C471.674 159.485 472.123 160.198 472.464 161.101C472.788 161.947 472.962 162.944 472.962 164.081V176.845H468.649Z" fill="white"/>
<path d="M494.28 176.884C494.211 176.654 494.162 176.35 494.122 175.969C494.085 175.605 494.057 175.269 494.057 174.953C493.352 175.763 492.535 176.334 491.603 176.646C490.672 176.961 489.85 177.135 489.113 177.135C486.962 177.135 485.363 176.556 484.314 175.451C483.257 174.337 482.735 172.888 482.735 171.106C482.735 170.345 482.868 169.583 483.136 168.838C483.403 168.101 483.804 167.413 484.347 166.842C484.901 166.275 485.582 165.805 486.375 165.437C487.169 165.068 488.117 164.902 489.186 164.902H494.057V164.121C494.057 163.052 493.79 162.165 493.247 161.484C492.713 160.796 491.866 160.444 490.704 160.444C489.842 160.444 489.084 160.731 488.424 161.25C487.772 161.78 487.404 162.416 487.343 163.157H483.091C483.111 162.27 483.338 161.428 483.755 160.67C484.189 159.901 484.756 159.253 485.44 158.723C486.128 158.176 486.914 157.739 487.772 157.447C488.647 157.147 489.534 156.99 490.437 156.99C491.741 156.99 492.867 157.18 493.847 157.524C494.831 157.893 495.661 158.37 496.341 158.998C497.009 159.605 497.519 160.314 497.864 161.136C498.204 161.974 498.378 162.873 498.378 163.809V173.43C498.378 174.038 498.402 174.588 498.435 175.058C498.467 175.536 498.56 176.135 498.738 176.884H494.28ZM494.057 168.117H489.927C489.02 168.117 488.303 168.409 487.748 168.939C487.193 169.474 486.922 170.166 486.922 170.98C486.922 171.778 487.214 172.418 487.772 172.9C488.343 173.37 489.084 173.592 489.991 173.592C491.283 173.592 492.287 173.264 492.992 172.62C493.705 171.985 494.057 171.029 494.057 169.745V168.117Z" fill="white"/>
<path d="M516.158 157.761C517.029 157.267 517.952 157.012 518.928 157.012C519.487 157.012 520.118 157.178 520.851 157.486C521.568 157.793 522.086 158.105 522.37 158.421L520.924 162.317C520.669 162.102 520.309 161.863 519.863 161.567C519.41 161.288 518.843 161.126 518.154 161.126C517.45 161.126 516.834 161.288 516.292 161.608C515.765 161.912 515.324 162.349 514.955 162.875C514.619 163.361 514.356 163.936 514.186 164.609C514.016 165.277 513.923 165.953 513.923 166.625V176.846H509.57V161.369C509.57 160.693 509.553 159.988 509.525 159.255C509.493 158.534 509.44 157.846 509.375 157.222H513.801C513.834 157.635 513.89 158.081 513.915 158.571C513.943 159.081 513.959 159.539 513.959 159.927C514.538 159 515.271 158.279 516.158 157.761Z" fill="white"/>
<path d="M554.254 176.845V164.904C554.254 163.583 553.971 162.567 553.379 161.862C552.8 161.138 551.995 160.785 550.962 160.785C549.913 160.785 549.071 161.17 548.463 161.919C547.852 162.684 547.544 163.648 547.544 164.794V176.845H543.223V164.904C543.223 163.689 542.924 162.684 542.308 161.919C541.721 161.17 540.863 160.785 539.765 160.785C538.858 160.785 538.101 161.178 537.457 161.964C536.838 162.745 536.501 163.725 536.501 164.904V176.845H532.152V161.069C532.152 160.66 532.144 160.299 532.12 160.008C532.104 159.704 532.083 159.421 532.059 159.161C532.035 158.89 531.994 158.607 531.97 158.299C531.921 158.019 531.873 157.659 531.857 157.226H536.352C536.42 157.554 536.457 157.987 536.493 158.457C536.526 158.951 536.55 159.368 536.55 159.704V159.639C536.959 158.89 537.57 158.279 538.38 157.76C539.206 157.266 540.089 157.015 541.057 157.015C542.094 157.015 543.09 157.25 544.058 157.744C545.034 158.238 545.839 159.117 546.475 160.417C547.099 159.242 547.953 158.372 549.026 157.821C550.099 157.282 551.128 157.015 552.092 157.015C554.023 157.015 555.594 157.679 556.805 158.999C558.008 160.299 558.603 162.041 558.603 164.219V176.845H554.254Z" fill="white"/>
<path d="M582.893 174.737C581.524 176.349 579.536 177.151 576.932 177.151C574.349 177.151 572.364 176.349 570.971 174.737C569.591 173.142 568.894 170.558 568.894 167.035C568.894 165.298 569.092 163.792 569.481 162.504C569.87 161.249 570.413 160.224 571.121 159.406C571.834 158.576 572.68 157.985 573.672 157.588C574.673 157.175 575.746 156.989 576.932 156.989C579.309 156.989 581.245 157.786 582.739 159.366C584.225 160.945 584.958 163.492 584.958 167.035C584.958 170.558 584.278 173.142 582.893 174.737ZM579.69 162.269C579.066 161.257 578.159 160.755 576.932 160.755C575.701 160.755 574.782 161.249 574.162 162.253C573.567 163.237 573.259 164.849 573.259 167.035C573.259 169.06 573.543 170.607 574.13 171.717C574.709 172.834 575.628 173.389 576.932 173.389C578.224 173.389 579.159 172.842 579.73 171.749C580.322 170.647 580.613 169.06 580.613 167.035C580.613 164.869 580.297 163.253 579.69 162.269Z" fill="white"/>
<path d="M606.867 176.845V164.904C606.867 163.758 606.555 162.802 605.932 162C605.312 161.186 604.458 160.785 603.352 160.785C602.275 160.785 601.421 161.178 600.752 161.98C600.101 162.778 599.768 163.749 599.768 164.904V176.845H595.448V161.125C595.448 160.591 595.411 159.955 595.363 159.271C595.306 158.59 595.233 157.894 595.124 157.226H599.647C599.708 157.586 599.748 158.019 599.781 158.505C599.821 158.983 599.829 159.437 599.829 159.87V159.805C600.433 158.825 601.238 158.129 602.243 157.687C603.239 157.25 604.109 157.015 604.802 157.015C606.717 157.015 608.26 157.671 609.43 158.975C610.613 160.283 611.204 162.024 611.204 164.219V176.845H606.867Z" fill="white"/>
<path d="M622.511 149.643H626.941V154.113H622.511V149.643ZM622.584 157.248H626.917V176.843H622.584V157.248Z" fill="white"/>
<path d="M651.823 173.613C651.418 174.375 650.912 175.01 650.288 175.533C649.665 176.043 648.96 176.444 648.203 176.735C647.417 177.015 646.648 177.148 645.903 177.148C643.185 177.148 641.132 176.249 639.715 174.427C638.294 172.625 637.581 170.163 637.581 167.033C637.581 163.935 638.294 161.481 639.715 159.679C641.132 157.877 643.185 156.99 645.882 156.99C646.692 156.99 647.502 157.177 648.268 157.525C649.057 157.893 649.762 158.355 650.393 158.926C650.985 159.513 651.491 160.173 651.876 160.926C652.256 161.671 652.455 162.441 652.455 163.231H648.154C648.114 162.558 647.842 161.975 647.324 161.481C646.806 160.995 646.194 160.752 645.477 160.752C644.202 160.752 643.303 161.295 642.752 162.376C642.181 163.441 641.902 165.004 641.902 167.033C641.902 169.268 642.201 170.908 642.805 171.937C643.416 172.933 644.34 173.463 645.571 173.463C646.223 173.463 646.806 173.253 647.324 172.836C647.842 172.415 648.122 171.832 648.203 171.086H652.426C652.426 172.038 652.216 172.884 651.823 173.613Z" fill="white"/>
<path d="M672.08 176.883C672.007 176.652 671.946 176.349 671.902 175.968C671.849 175.603 671.841 175.267 671.841 174.952C671.148 175.761 670.306 176.332 669.383 176.644C668.46 176.96 667.642 177.134 666.905 177.134C664.758 177.134 663.151 176.555 662.094 175.45C661.037 174.336 660.519 172.886 660.519 171.105C660.519 170.343 660.656 169.582 660.915 168.837C661.183 168.1 661.6 167.411 662.114 166.84C662.697 166.274 663.361 165.804 664.171 165.435C664.969 165.067 665.888 164.901 666.969 164.901H671.841V164.119C671.841 163.05 671.574 162.163 671.035 161.483C670.504 160.795 669.634 160.442 668.484 160.442C667.621 160.442 666.864 160.73 666.212 161.248C665.556 161.779 665.216 162.414 665.123 163.155H660.871C660.903 162.269 661.122 161.426 661.547 160.669C661.968 159.9 662.531 159.252 663.224 158.721C663.92 158.175 664.698 157.737 665.556 157.446C666.451 157.146 667.334 156.988 668.221 156.988C669.508 156.988 670.658 157.178 671.634 157.523C672.618 157.891 673.448 158.369 674.141 158.997C674.797 159.604 675.315 160.313 675.647 161.135C675.987 161.973 676.162 162.872 676.162 163.807V173.429C676.162 174.036 676.174 174.587 676.214 175.057C676.234 175.535 676.352 176.134 676.518 176.883H672.08ZM671.841 168.116H667.714C666.811 168.116 666.087 168.408 665.528 168.938C664.989 169.473 664.718 170.165 664.718 170.979C664.718 171.777 664.997 172.417 665.556 172.898C666.151 173.368 666.864 173.591 667.775 173.591C669.071 173.591 670.079 173.263 670.784 172.619C671.476 171.983 671.841 171.028 671.841 169.744V168.116Z" fill="white"/>
<path d="M705.317 168.563C705.317 170.13 705.682 171.369 706.395 172.288C707.099 173.204 708.168 173.653 709.577 173.653C710.322 173.653 711.031 173.434 711.703 172.993C712.376 172.556 712.772 171.981 712.866 171.276H717.352C717.292 172.017 717.085 172.718 716.68 173.434C716.303 174.123 715.765 174.734 715.081 175.289C714.396 175.848 713.598 176.301 712.667 176.646C711.724 176.986 710.719 177.148 709.618 177.148C707.026 177.148 704.945 176.277 703.39 174.532C701.811 172.774 701.037 170.28 701.037 167.032C701.037 165.331 701.252 163.857 701.689 162.594C702.135 161.355 702.746 160.298 703.523 159.468C704.273 158.63 705.159 158.002 706.148 157.585C707.152 157.2 708.209 156.99 709.318 156.99C710.448 156.99 711.497 157.2 712.501 157.585C713.497 158.002 714.38 158.597 715.133 159.367C715.89 160.156 716.482 161.12 716.939 162.282C717.397 163.444 717.624 164.777 717.624 166.283V168.563H705.317ZM713.072 163.513C712.914 162.942 712.675 162.44 712.367 162.007C712.035 161.569 711.63 161.185 711.12 160.918C710.606 160.626 710.023 160.48 709.318 160.48C708.654 160.48 708.087 160.618 707.597 160.881C707.099 161.169 706.666 161.529 706.342 161.974C706.002 162.408 705.763 162.918 705.585 163.481C705.411 164.056 705.317 164.651 705.317 165.23H713.331C713.311 164.667 713.218 164.092 713.072 163.513Z" fill="white"/>
<path d="M736.377 176.46C735.393 176.893 734.51 177.132 733.712 177.132C731.525 177.132 729.877 176.335 728.78 174.735C727.691 173.127 727.128 170.556 727.128 167.033C727.128 163.781 727.751 161.295 728.954 159.61C730.165 157.893 731.817 157.059 733.878 157.059C734.72 157.059 735.587 157.25 736.49 157.646C737.393 158.047 738.138 158.63 738.717 159.42V149.823H743.074V173.152C743.074 173.694 743.074 174.29 743.103 174.929C743.127 175.573 743.2 176.213 743.334 176.845H738.968C738.863 176.586 738.79 176.213 738.75 175.756C738.701 175.29 738.701 174.844 738.717 174.427C738.138 175.33 737.34 176.023 736.377 176.46ZM737.838 162.352C737.247 161.319 736.324 160.817 735.113 160.817C733.765 160.817 732.829 161.356 732.291 162.404C731.752 163.449 731.473 165.004 731.473 167.033C731.473 169.268 731.764 170.876 732.311 171.88C732.854 172.848 733.785 173.35 735.113 173.35C736.324 173.35 737.247 172.884 737.838 171.937C738.418 170.977 738.717 169.349 738.717 167.033C738.717 164.923 738.418 163.364 737.838 162.352Z" fill="white"/>
<path d="M765.717 176.844C765.644 176.593 765.592 176.301 765.543 175.957C765.491 175.605 765.458 175.293 765.458 175.018C764.79 175.73 764.017 176.273 763.118 176.593C762.223 176.921 761.344 177.079 760.453 177.079C758.534 177.079 756.999 176.483 755.816 175.269C754.666 174.062 754.075 172.264 754.075 169.887V157.224H758.481V169.17C758.481 170.539 758.805 171.584 759.425 172.313C760.056 173.017 760.898 173.386 761.976 173.386C763.033 173.386 763.895 172.969 764.547 172.163C765.199 171.341 765.523 170.349 765.523 169.17V157.224H769.836V173.05C769.836 173.738 769.864 174.414 769.917 175.018C769.957 175.621 770.018 176.241 770.103 176.844H765.717Z" fill="white"/>
<path d="M794.476 173.613C794.071 174.375 793.573 175.01 792.95 175.533C792.33 176.043 791.626 176.444 790.848 176.735C790.079 177.015 789.301 177.148 788.556 177.148C785.839 177.148 783.786 176.249 782.369 174.427C780.947 172.625 780.222 170.163 780.222 167.033C780.222 163.935 780.947 161.481 782.369 159.679C783.786 157.877 785.839 156.99 788.524 156.99C789.354 156.99 790.144 157.177 790.929 157.525C791.719 157.893 792.423 158.355 793.047 158.926C793.634 159.513 794.132 160.173 794.529 160.926C794.922 161.671 795.108 162.441 795.108 163.231H790.816C790.767 162.558 790.496 161.975 789.978 161.481C789.467 160.995 788.848 160.752 788.131 160.752C786.868 160.752 785.965 161.295 785.394 162.376C784.823 163.441 784.563 165.004 784.563 167.033C784.563 169.268 784.863 170.908 785.458 171.937C786.058 172.933 787.001 173.463 788.236 173.463C788.876 173.463 789.467 173.253 789.978 172.836C790.496 172.415 790.795 171.832 790.848 171.086H795.08C795.08 172.038 794.857 172.884 794.476 173.613Z" fill="white"/>
<path d="M814.722 176.883C814.649 176.652 814.608 176.349 814.556 175.968C814.515 175.603 814.495 175.267 814.495 174.952C813.79 175.761 812.968 176.332 812.049 176.644C811.114 176.96 810.283 177.134 809.559 177.134C807.404 177.134 805.797 176.555 804.74 175.45C803.711 174.336 803.165 172.886 803.165 171.105C803.165 170.343 803.298 169.582 803.557 168.837C803.837 168.1 804.242 167.411 804.768 166.84C805.339 166.274 806.023 165.804 806.813 165.435C807.611 165.067 808.554 164.901 809.619 164.901H814.495V164.119C814.495 163.05 814.224 162.163 813.697 161.483C813.159 160.795 812.308 160.442 811.146 160.442C810.275 160.442 809.53 160.73 808.866 161.248C808.21 161.779 807.85 162.414 807.785 163.155H803.537C803.557 162.269 803.776 161.426 804.197 160.669C804.622 159.9 805.205 159.252 805.89 158.721C806.562 158.175 807.352 157.737 808.222 157.446C809.081 157.146 809.984 156.988 810.887 156.988C812.171 156.988 813.312 157.178 814.276 157.523C815.26 157.891 816.103 158.369 816.787 158.997C817.447 159.604 817.957 160.313 818.297 161.135C818.642 161.973 818.816 162.872 818.816 163.807V173.429C818.816 174.036 818.84 174.587 818.856 175.057C818.901 175.535 819.002 176.134 819.18 176.883H814.722ZM814.495 168.116H810.356C809.465 168.116 808.728 168.408 808.19 168.938C807.631 169.473 807.372 170.165 807.372 170.979C807.372 171.777 807.651 172.417 808.222 172.898C808.793 173.368 809.53 173.591 810.417 173.591C811.717 173.591 812.721 173.263 813.434 172.619C814.143 171.983 814.495 171.028 814.495 169.744V168.116Z" fill="white"/>
<path d="M836.08 176.915C834.245 176.915 832.885 176.502 832.006 175.7C831.091 174.874 830.658 173.477 830.658 171.472V161.122H828.52V157.627H830.658V151.723H834.978V157.627H838.505V161.122H834.978V171.088C834.978 172.039 835.165 172.647 835.549 172.93C835.922 173.238 836.4 173.388 836.991 173.388H838.505V176.915H836.08Z" fill="white"/>
<path d="M849.175 149.643H853.601V154.113H849.175V149.643ZM849.236 157.248H853.568V176.843H849.236V157.248Z" fill="white"/>
<path d="M878.336 174.738C876.955 176.349 874.967 177.151 872.375 177.151C869.78 177.151 867.799 176.349 866.415 174.738C865.026 173.142 864.329 170.559 864.329 167.035C864.329 165.298 864.536 163.792 864.92 162.504C865.293 161.249 865.844 160.224 866.56 159.406C867.261 158.576 868.123 157.985 869.107 157.588C870.104 157.175 871.181 156.989 872.375 156.989C874.76 156.989 876.696 157.787 878.178 159.366C879.66 160.945 880.397 163.492 880.397 167.035C880.397 170.559 879.713 173.142 878.336 174.738ZM875.121 162.269C874.517 161.257 873.598 160.755 872.375 160.755C871.14 160.755 870.217 161.249 869.606 162.253C869.006 163.237 868.694 164.849 868.694 167.035C868.694 169.06 868.974 170.607 869.565 171.717C870.144 172.834 871.067 173.389 872.375 173.389C873.659 173.389 874.59 172.842 875.161 171.749C875.757 170.648 876.032 169.06 876.032 167.035C876.032 164.869 875.757 163.253 875.121 162.269Z" fill="white"/>
<path d="M902.304 176.845V164.904C902.304 163.758 901.996 162.802 901.373 162C900.741 161.186 899.903 160.785 898.793 160.785C897.724 160.785 896.841 161.178 896.19 161.98C895.546 162.778 895.205 163.749 895.205 164.904V176.845H890.881V161.125C890.881 160.591 890.86 159.955 890.808 159.271C890.755 158.59 890.674 157.894 890.561 157.226H895.068C895.133 157.586 895.193 158.019 895.226 158.505C895.246 158.983 895.278 159.437 895.278 159.87V159.805C895.866 158.825 896.675 158.129 897.672 157.687C898.676 157.25 899.538 157.015 900.243 157.015C902.15 157.015 903.685 157.671 904.867 158.975C906.05 160.283 906.617 162.024 906.617 164.219V176.845H902.304Z" fill="white"/>
<path d="M942.625 176.884C942.572 176.654 942.508 176.35 942.467 175.969C942.435 175.605 942.406 175.269 942.406 174.953C941.694 175.763 940.872 176.334 939.961 176.646C939.037 176.961 938.195 177.135 937.47 177.135C935.324 177.135 933.708 176.556 932.659 175.451C931.615 174.337 931.084 172.888 931.084 171.106C931.084 170.345 931.21 169.583 931.477 168.838C931.748 168.101 932.153 167.413 932.692 166.842C933.255 166.275 933.927 165.805 934.737 165.437C935.514 165.068 936.458 164.902 937.543 164.902H942.406V164.121C942.406 163.052 942.135 162.165 941.609 161.484C941.058 160.796 940.208 160.444 939.049 160.444C938.195 160.444 937.442 160.731 936.77 161.25C936.126 161.78 935.761 162.416 935.688 163.157H931.437C931.461 162.27 931.688 161.428 932.121 160.67C932.546 159.901 933.109 159.253 933.793 158.723C934.486 158.176 935.251 157.739 936.126 157.447C937.005 157.147 937.875 156.99 938.79 156.99C940.086 156.99 941.224 157.18 942.2 157.524C943.164 157.893 944.014 158.37 944.698 158.998C945.371 159.605 945.869 160.314 946.209 161.136C946.553 161.974 946.731 162.873 946.731 163.809V173.43C946.731 174.038 946.739 174.588 946.78 175.058C946.812 175.536 946.918 176.135 947.084 176.884H942.625ZM942.406 168.117H938.268C937.381 168.117 936.652 168.409 936.114 168.939C935.555 169.474 935.283 170.166 935.283 170.98C935.283 171.778 935.563 172.418 936.126 172.9C936.693 173.37 937.442 173.592 938.341 173.592C939.629 173.592 940.633 173.264 941.35 172.62C942.042 171.985 942.406 171.029 942.406 169.745V168.117Z" fill="white"/>
<path d="M970.065 175.544C968.709 176.625 966.716 177.148 964.125 177.148C963.202 177.148 962.303 177.026 961.42 176.767C960.537 176.488 959.772 176.123 959.075 175.621C958.391 175.131 957.852 174.516 957.419 173.783C956.99 173.034 956.787 172.203 956.763 171.244H961.047C961.201 172.001 961.566 172.556 962.132 172.916C962.703 173.273 963.453 173.467 964.404 173.467C965.461 173.467 966.283 173.26 966.882 172.847C967.466 172.434 967.753 171.835 967.753 171.005C967.753 170.43 967.555 169.96 967.142 169.6C966.749 169.247 966.218 169.029 965.587 168.911L962.469 168.409C960.881 168.15 959.573 167.53 958.557 166.502C957.532 165.498 957.022 164.323 957.022 162.995C957.022 162.096 957.208 161.258 957.605 160.537C957.986 159.808 958.504 159.164 959.168 158.654C959.853 158.128 960.634 157.723 961.513 157.427C962.404 157.131 963.355 156.99 964.376 156.99C965.453 156.99 966.457 157.156 967.381 157.455C968.304 157.791 969.102 158.184 969.754 158.723C970.438 159.241 970.997 159.853 971.361 160.513C971.746 161.201 971.94 161.885 971.952 162.574H967.753C967.628 162.039 967.287 161.57 966.716 161.12C966.137 160.691 965.453 160.48 964.635 160.48C963.712 160.48 962.934 160.691 962.311 161.116C961.699 161.541 961.375 162.072 961.375 162.764C961.375 163.323 961.566 163.781 961.946 164.096C962.323 164.433 962.829 164.651 963.473 164.732L966.571 165.234C968.219 165.498 969.559 166.174 970.584 167.223C971.6 168.275 972.118 169.49 972.118 170.863C972.118 172.916 971.434 174.467 970.065 175.544Z" fill="white"/>
<path d="M994.129 175.544C992.768 176.625 990.78 177.148 988.176 177.148C987.253 177.148 986.362 177.026 985.491 176.767C984.613 176.488 983.835 176.123 983.151 175.621C982.466 175.131 981.916 174.516 981.482 173.783C981.077 173.034 980.826 172.203 980.826 171.244H985.119C985.265 172.001 985.637 172.556 986.196 172.916C986.759 173.273 987.524 173.467 988.476 173.467C989.525 173.467 990.355 173.26 990.934 172.847C991.537 172.434 991.817 171.835 991.817 171.005C991.817 170.43 991.63 169.96 991.217 169.6C990.808 169.247 990.294 169.029 989.658 168.911L986.54 168.409C984.953 168.15 983.637 167.53 982.62 166.502C981.584 165.498 981.077 164.323 981.077 162.995C981.077 162.096 981.272 161.258 981.677 160.537C982.049 159.808 982.592 159.164 983.244 158.654C983.916 158.128 984.686 157.723 985.585 157.427C986.479 157.131 987.431 156.99 988.435 156.99C989.525 156.99 990.509 157.156 991.444 157.455C992.367 157.791 993.153 158.184 993.837 158.723C994.522 159.241 995.052 159.853 995.425 160.513C995.797 161.201 996.004 161.885 996.028 162.574H991.817C991.691 162.039 991.351 161.57 990.78 161.12C990.209 160.691 989.525 160.48 988.699 160.48C987.783 160.48 986.994 160.691 986.362 161.116C985.742 161.541 985.451 162.072 985.451 162.764C985.451 163.323 985.637 163.781 986.01 164.096C986.382 164.433 986.88 164.651 987.544 164.732L990.646 165.234C992.294 165.498 993.631 166.174 994.647 167.223C995.676 168.275 996.182 169.49 996.182 170.863C996.182 172.916 995.506 174.467 994.129 175.544Z" fill="white"/>
<path d="M1019.37 174.737C1018 176.349 1016 177.151 1013.41 177.151C1010.83 177.151 1008.84 176.349 1007.46 174.737C1006.08 173.142 1005.39 170.558 1005.39 167.035C1005.39 165.298 1005.57 163.792 1005.95 162.504C1006.33 161.249 1006.89 160.224 1007.6 159.406C1008.31 158.576 1009.17 157.985 1010.15 157.588C1011.14 157.175 1012.22 156.989 1013.41 156.989C1015.78 156.989 1017.74 157.786 1019.21 159.366C1020.7 160.945 1021.45 163.492 1021.45 167.035C1021.45 170.558 1020.75 173.142 1019.37 174.737ZM1016.17 162.269C1015.56 161.257 1014.65 160.755 1013.41 160.755C1012.19 160.755 1011.25 161.249 1010.64 162.253C1010.04 163.237 1009.73 164.849 1009.73 167.035C1009.73 169.06 1010.02 170.607 1010.59 171.717C1011.18 172.834 1012.12 173.389 1013.41 173.389C1014.7 173.389 1015.63 172.842 1016.22 171.749C1016.79 170.647 1017.08 169.06 1017.08 167.035C1017.08 164.869 1016.79 163.253 1016.17 162.269Z" fill="white"/>
<path d="M1045.27 173.614C1044.87 174.376 1044.34 175.012 1043.74 175.534C1043.11 176.044 1042.42 176.445 1041.64 176.737C1040.86 177.016 1040.1 177.15 1039.35 177.15C1036.63 177.15 1034.57 176.251 1033.15 174.428C1031.73 172.626 1031.03 170.164 1031.03 167.034C1031.03 163.936 1031.73 161.482 1033.15 159.68C1034.57 157.878 1036.62 156.992 1039.31 156.992C1040.12 156.992 1040.93 157.178 1041.72 157.526C1042.5 157.895 1043.22 158.356 1043.84 158.927C1044.43 159.514 1044.93 160.174 1045.31 160.928C1045.7 161.673 1045.9 162.442 1045.9 163.232H1041.6C1041.55 162.56 1041.28 161.976 1040.77 161.482C1040.24 160.996 1039.64 160.753 1038.92 160.753C1037.66 160.753 1036.75 161.296 1036.18 162.377C1035.63 163.442 1035.34 165.005 1035.34 167.034C1035.34 169.269 1035.64 170.909 1036.24 171.938C1036.85 172.934 1037.79 173.465 1039.02 173.465C1039.67 173.465 1040.24 173.254 1040.77 172.837C1041.28 172.416 1041.56 171.833 1041.64 171.088H1045.87C1045.87 172.039 1045.66 172.886 1045.27 173.614Z" fill="white"/>
<path d="M1055.67 149.643H1060.09V154.113H1055.67V149.643ZM1055.73 157.248H1060.04V176.843H1055.73V157.248Z" fill="white"/>
<path d="M1081.86 176.884C1081.8 176.653 1081.74 176.349 1081.7 175.969C1081.66 175.604 1081.65 175.268 1081.65 174.952C1080.93 175.762 1080.11 176.333 1079.19 176.645C1078.26 176.961 1077.44 177.135 1076.71 177.135C1074.55 177.135 1072.95 176.556 1071.89 175.45C1070.83 174.337 1070.32 172.887 1070.32 171.105C1070.32 170.344 1070.45 169.583 1070.71 168.838C1070.99 168.101 1071.38 167.412 1071.93 166.841C1072.48 166.274 1073.16 165.805 1073.96 165.436C1074.75 165.068 1075.7 164.902 1076.77 164.902H1081.65V164.12C1081.65 163.051 1081.37 162.164 1080.83 161.484C1080.29 160.795 1079.43 160.443 1078.29 160.443C1077.43 160.443 1076.66 160.731 1076 161.249C1075.34 161.779 1074.99 162.415 1074.93 163.156H1070.67C1070.69 162.269 1070.92 161.427 1071.36 160.67C1071.78 159.9 1072.33 159.253 1073.02 158.722C1073.71 158.175 1074.49 157.738 1075.37 157.446C1076.24 157.147 1077.13 156.989 1078.02 156.989C1079.33 156.989 1080.45 157.179 1081.43 157.523C1082.41 157.892 1083.24 158.37 1083.93 158.997C1084.58 159.605 1085.1 160.313 1085.44 161.136C1085.78 161.974 1085.97 162.873 1085.97 163.808V173.43C1085.97 174.037 1085.97 174.588 1086.01 175.058C1086.05 175.535 1086.16 176.135 1086.31 176.884H1081.86ZM1081.65 168.117H1077.5C1076.61 168.117 1075.88 168.408 1075.32 168.939C1074.79 169.473 1074.52 170.166 1074.52 170.98C1074.52 171.777 1074.8 172.417 1075.37 172.899C1075.93 173.369 1076.66 173.592 1077.58 173.592C1078.86 173.592 1079.86 173.264 1080.57 172.62C1081.3 171.984 1081.65 171.028 1081.65 169.745V168.117Z" fill="white"/>
<path d="M1103.21 176.916C1101.4 176.916 1100.04 176.503 1099.14 175.701C1098.26 174.875 1097.79 173.478 1097.79 171.474V161.123H1095.68V157.629H1097.79V151.725H1102.11V157.629H1105.64V161.123H1102.11V171.089C1102.11 172.041 1102.33 172.648 1102.69 172.931C1103.08 173.239 1103.54 173.389 1104.13 173.389H1105.64V176.916H1103.21Z" fill="white"/>
<path d="M1116.32 149.643H1120.73V154.113H1116.32V149.643ZM1116.39 157.248H1120.7V176.843H1116.39V157.248Z" fill="white"/>
<path d="M1145.48 174.737C1144.09 176.349 1142.12 177.151 1139.52 177.151C1136.93 177.151 1134.94 176.349 1133.57 174.737C1132.18 173.142 1131.48 170.558 1131.48 167.035C1131.48 165.298 1131.67 163.792 1132.07 162.504C1132.45 161.249 1133 160.224 1133.7 159.406C1134.42 158.576 1135.26 157.985 1136.27 157.588C1137.24 157.175 1138.34 156.989 1139.52 156.989C1141.9 156.989 1143.84 157.786 1145.34 159.366C1146.79 160.945 1147.54 163.492 1147.54 167.035C1147.54 170.558 1146.86 173.142 1145.48 174.737ZM1142.27 162.269C1141.66 161.257 1140.74 160.755 1139.52 160.755C1138.29 160.755 1137.38 161.249 1136.76 162.253C1136.14 163.237 1135.84 164.849 1135.84 167.035C1135.84 169.06 1136.12 170.607 1136.71 171.717C1137.28 172.834 1138.23 173.389 1139.52 173.389C1140.81 173.389 1141.72 172.842 1142.32 171.749C1142.91 170.647 1143.18 169.06 1143.18 167.035C1143.18 164.869 1142.89 163.253 1142.27 162.269Z" fill="white"/>
<path d="M1169.46 176.845V164.904C1169.46 163.758 1169.14 162.802 1168.5 162C1167.88 161.186 1167.02 160.785 1165.94 160.785C1164.85 160.785 1164 161.178 1163.33 161.98C1162.68 162.778 1162.35 163.749 1162.35 164.904V176.845H1158.04V161.125C1158.04 160.591 1158 159.955 1157.95 159.271C1157.9 158.59 1157.82 157.894 1157.71 157.226H1162.22C1162.29 157.586 1162.34 158.019 1162.38 158.505C1162.4 158.983 1162.41 159.437 1162.41 159.87V159.805C1163.02 158.825 1163.82 158.129 1164.83 157.687C1165.83 157.25 1166.67 157.015 1167.39 157.015C1169.3 157.015 1170.85 157.671 1172.01 158.975C1173.19 160.283 1173.77 162.024 1173.77 164.219V176.845H1169.46Z" fill="white"/>
<path d="M62.6084 146.13H43.7274C54.1126 164.13 70.1133 178.496 89.3448 186.851C77.2597 175.884 67.9622 161.92 62.6084 146.13Z" fill="white"/>
<path d="M193.638 25.6006C205.527 36.3922 214.701 50.089 220.115 65.5481H238.826C228.409 47.9162 212.595 33.8372 193.638 25.6006Z" fill="white"/>
<path d="M212.535 145.959C195.74 175.163 164.262 194.856 128.164 194.856C114.363 194.856 101.238 191.952 89.3448 186.769C106.631 202.516 129.605 212.108 154.816 212.108C197.651 212.108 233.979 184.414 246.987 145.959H212.535Z" fill="white"/>
<path d="M128.99 98.3327H92.1468V74.3967H77.8333V136.852H92.1468V112.912H128.99V136.852H143.296V74.3967H128.99V98.3327Z" fill="white"/>
<path d="M253.57 80.4195C252.629 78.7796 251.377 77.3332 249.859 76.1284C246.334 73.3604 242.639 73.5618 239.165 76.2292C237.583 77.4822 236.34 78.9045 235.454 80.4114L210.307 122.287H163.609V112.935H209.023V98.3695H163.609V89.0258H212.355V74.4604H158.043C154.421 74.4604 149.309 75.8867 149.309 82.7323V129.39C149.309 132.714 151.128 136.852 158.019 136.852H201.56H214.617H217.145L244.237 92.2975L253.675 107.927H253.639L260.984 120.115H261L271.059 136.852H286.591L253.57 80.4195Z" fill="white"/>
<path d="M244.027 119.67C239.3 119.67 235.475 123.524 235.475 128.259C235.475 132.999 239.3 136.852 244.027 136.852C248.75 136.852 252.571 132.999 252.571 128.259C252.571 123.524 248.75 119.67 244.027 119.67Z" fill="white"/>
<path d="M14.4232 77.3288C16.5783 78.8551 19.7526 79.0037 22.1252 77.859C22.5079 77.6823 22.7295 78.2968 22.3549 78.4736C19.8856 79.6665 16.7435 79.4857 14.4193 78.104C12.1796 76.7665 10.9025 74.6498 10.0163 72.3242L9.87939 135.975C10.7696 133.673 12.0426 131.589 14.2581 130.203C16.5663 128.765 19.813 128.649 22.2662 129.85C22.6489 130.034 22.3709 130.629 21.9802 130.436C19.6357 129.295 16.6468 129.48 14.4595 130.858C12.2842 132.227 11.1 134.376 10.2702 136.714L18.9308 136.188C18.9308 136.188 21.1786 136.316 22.0164 134.067L22.9188 130.296C22.9188 130.296 23.3538 128.882 23.3538 127.797L23.3901 113.052H28.0708H29.7788C33.1988 113.117 36.4092 112.301 39.2532 111.132L58.7014 136.766H78.2626L51.9583 102.159L77.8477 74.5654H58.2906L44.2079 89.6959C43.9622 89.9288 43.7084 90.1899 43.4466 90.459C36.7396 97.4158 30.5079 98.4239 28.1594 98.5324H28.1111H23.4182L23.4585 80.8916C23.4585 80.8916 23.4626 78.6744 23.0275 77.2445L21.94 73.1556C21.94 73.1556 21.5451 71.6976 19.7083 71.6976L10.3507 71.304C11.1523 73.6416 12.2963 75.8146 14.4232 77.3288Z" fill="white"/>
<path d="M1.96712 64.3464V65.3926L3.46927 66.5716H3.56471L2.18166 71.159C1.00535 71.159 0.131073 71.5534 0.127099 72.8571L0 134.839C0 134.895 0.0238248 136.754 1.96712 136.754H4.435V71.1469V70.0926C4.435 69.6782 4.77277 69.3361 5.18607 69.3361C5.59937 69.3361 5.93314 69.6782 5.93314 70.0926L5.92926 71.151L5.92526 71.3884C5.92526 71.4568 5.91335 71.5171 5.89348 71.5775H5.92526L5.78615 136.758L8.61968 136.766L8.76267 71.159H8.72689H7.53473L6.62066 66.5757L8.1467 65.2799V64.3182C8.1467 64.3182 6.79956 63.9198 5.22585 63.9198C5.22585 63.9198 5.13834 63.9158 4.9913 63.9158C4.39122 63.9158 2.81359 63.956 1.96712 64.3464Z" fill="white"/>
<path d="M35.8239 65.2751H70.4679C87.3895 36.5359 118.62 17.2475 154.371 17.2475C168.173 17.2475 181.299 20.1376 193.186 25.3179C175.906 9.57969 152.93 -3.8147e-05 127.717 -3.8147e-05C85.1999 -3.8147e-05 49.0785 27.2701 35.8239 65.2751Z" fill="white"/>
</svg>
