<svg width="70" height="16" viewBox="0 0 70 16" fill="none" xmlns="http://www.w3.org/2000/svg">
<path d="M32.4047 14.2382C31.9602 13.9371 31.6447 13.4782 31.4583 12.8473C31.2719 12.2164 31.1859 11.3848 31.1859 10.3381V8.91862C31.1859 7.87192 31.2863 7.01161 31.5014 6.38072C31.7164 5.7355 32.0462 5.27667 32.505 4.9899C32.9639 4.70313 33.5517 4.54541 34.283 4.54541C34.9999 4.54541 35.5878 4.68879 36.018 4.9899C36.4481 5.29101 36.7779 5.74984 36.9786 6.38072C37.1794 7.01161 37.2797 7.85758 37.2797 8.90428V10.3238C37.2797 11.3705 37.1794 12.2021 36.9786 12.833C36.7779 13.4639 36.4624 13.9227 36.018 14.2238C35.5735 14.5106 34.9712 14.6683 34.2257 14.6683C33.4514 14.6826 32.8492 14.5249 32.4047 14.2382ZM34.8852 12.704C35.0143 12.3885 35.0716 11.858 35.0716 11.1411V8.08699C35.0716 7.38441 35.0143 6.86823 34.8852 6.55278C34.7562 6.223 34.5411 6.06528 34.24 6.06528C33.9389 6.06528 33.7381 6.223 33.6091 6.55278C33.4801 6.88257 33.4227 7.38441 33.4227 8.08699V11.1411C33.4227 11.858 33.4801 12.3885 33.5948 12.704C33.7095 13.0194 33.9245 13.1771 34.24 13.1771C34.5411 13.1771 34.7562 13.0194 34.8852 12.704Z" fill="white"/>
<path d="M66.3149 10.3668V10.8686C66.3149 11.4995 66.3293 11.9727 66.3723 12.2881C66.4153 12.6036 66.487 12.833 66.6017 12.9764C66.7164 13.1198 66.9028 13.1915 67.1466 13.1915C67.4764 13.1915 67.7058 13.0624 67.8205 12.8043C67.9495 12.5462 68.0069 12.1161 68.0212 11.5282L69.9282 11.6429C69.9426 11.7289 69.9426 11.8436 69.9426 11.987C69.9426 12.8904 69.6988 13.5643 69.197 14.0087C68.6951 14.4532 68.0069 14.6826 67.1036 14.6826C66.0138 14.6826 65.2539 14.3385 64.8238 13.6646C64.3936 12.9907 64.1642 11.9297 64.1642 10.5102V8.77523C64.1642 7.31272 64.3936 6.23734 64.8381 5.56344C65.2969 4.88953 66.0712 4.54541 67.1609 4.54541C67.9208 4.54541 68.4944 4.68879 68.8959 4.96122C69.2973 5.23365 69.5841 5.6638 69.7562 6.25168C69.9282 6.83955 69.9999 7.6425 69.9999 8.67487V10.3525H66.3149V10.3668ZM66.6017 6.23734C66.487 6.38072 66.4153 6.5958 66.3723 6.91124C66.3293 7.22669 66.3149 7.69986 66.3149 8.34508V9.04766H67.9208V8.34508C67.9208 7.71419 67.9065 7.24103 67.8635 6.91124C67.8205 6.58146 67.7488 6.35205 67.6341 6.223C67.5194 6.09396 67.3473 6.02226 67.1179 6.02226C66.8741 6.0366 66.7021 6.10829 66.6017 6.23734Z" fill="white"/>
<path d="M27.0422 10.18L24.533 1.11816H26.7267L27.6014 5.21894C27.8308 6.23697 27.9885 7.09727 28.1032 7.79985H28.1606C28.2323 7.28367 28.4043 6.43771 28.6624 5.23328L29.5657 1.11816H31.7595L29.2216 10.1657V14.5102H27.0565V10.18H27.0422Z" fill="white"/>
<path d="M44.3916 4.73193V14.5251H42.671L42.4846 13.3206H42.4416C41.9684 14.2239 41.2658 14.6828 40.3338 14.6828C39.6886 14.6828 39.2011 14.4677 38.9 14.0375C38.5845 13.6074 38.4412 12.9478 38.4412 12.0445V4.73193H40.6493V11.9155C40.6493 12.3456 40.6923 12.6611 40.7927 12.8475C40.893 13.0339 41.0508 13.1199 41.2658 13.1199C41.4522 13.1199 41.6386 13.0625 41.8107 12.9478C41.9827 12.8331 42.1118 12.6754 42.1978 12.5033V4.73193H44.3916Z" fill="white"/>
<path d="M55.7046 4.73193V14.5251H53.984L53.7976 13.3206H53.7546C53.2814 14.2239 52.5788 14.6828 51.6468 14.6828C51.0016 14.6828 50.5141 14.4677 50.213 14.0375C49.8975 13.6074 49.7542 12.9478 49.7542 12.0445V4.73193H51.9623V11.9155C51.9623 12.3456 52.0053 12.6611 52.1056 12.8475C52.206 13.0339 52.3637 13.1199 52.5788 13.1199C52.7652 13.1199 52.9516 13.0625 53.1237 12.9478C53.2957 12.8331 53.4248 12.6754 53.5108 12.5033V4.73193H55.7046Z" fill="white"/>
<path d="M50.385 2.89612H48.1912V14.5246H46.0405V2.89612H43.8467V1.11816H50.3706V2.89612H50.385Z" fill="white"/>
<path d="M62.9885 6.2947C62.8594 5.67815 62.6443 5.23366 62.3432 4.94689C62.0421 4.67446 61.6406 4.53108 61.1101 4.53108C60.7086 4.53108 60.3215 4.64579 59.9774 4.8752C59.6189 5.10461 59.3608 5.40572 59.1601 5.77852H59.1458V0.616699H57.0237V14.5106H58.8447L59.0741 13.5786H59.1171C59.2891 13.9084 59.5472 14.1665 59.877 14.3672C60.2211 14.5536 60.5939 14.654 61.0098 14.654C61.7553 14.654 62.3002 14.3099 62.6587 13.6216C63.0028 12.9334 63.1892 11.858 63.1892 10.4098V8.86127C63.1892 7.77155 63.1175 6.91125 62.9885 6.2947ZM60.9667 10.2951C60.9667 11.012 60.9381 11.5712 60.8807 11.9727C60.8234 12.3742 60.723 12.6609 60.5796 12.833C60.4362 13.0051 60.2498 13.0911 60.0204 13.0911C59.834 13.0911 59.6763 13.0481 59.5186 12.9621C59.3608 12.876 59.2461 12.747 59.1458 12.5749V7.01162C59.2175 6.73919 59.3465 6.52411 59.5329 6.35205C59.7193 6.17999 59.9057 6.09396 60.1208 6.09396C60.3502 6.09396 60.5222 6.17999 60.637 6.35205C60.766 6.52411 60.8377 6.82522 60.895 7.24103C60.9381 7.65685 60.9667 8.24472 60.9667 9.01899V10.2951Z" fill="white"/>
<path fill-rule="evenodd" clip-rule="evenodd" d="M20.873 0.473167C21.8337 0.731258 22.5936 1.49119 22.8517 2.45186C23.3249 4.20115 23.3392 7.82876 23.3392 7.82876C23.3392 7.82876 23.3392 11.4707 22.866 13.2057C22.6079 14.1663 21.848 14.9263 20.8873 15.1844C19.1524 15.6575 12.1696 15.6575 12.1696 15.6575C12.1696 15.6575 5.18681 15.6575 3.45186 15.1844C2.49119 14.9263 1.73126 14.1663 1.47317 13.2057C1 11.4564 1 7.82876 1 7.82876C1 7.82876 1 4.20115 1.45883 2.4662C1.71692 1.50553 2.47685 0.745596 3.43753 0.487505C5.17247 0.0143384 12.1553 0 12.1553 0C12.1553 0 19.1381 0 20.873 0.473167ZM15.7256 7.82882L9.93286 11.184V4.47363L15.7256 7.82882Z" fill="white"/>
</svg>
